<?xml version="1.0" encoding="utf-8"?>
<!-- Generator: Adobe Illustrator 24.0.1, SVG Export Plug-In . SVG Version: 6.00 Build 0)  -->
<svg version="1.1" id="Layer_1" xmlns="http://www.w3.org/2000/svg" xmlns:xlink="http://www.w3.org/1999/xlink" x="0px" y="0px"
	 viewBox="0 0 250 65" style="enable-background:new 0 0 250 65;" xml:space="preserve">
<style type="text/css">
	.st0{fill:#8A2BE2;stroke:#000000;stroke-miterlimit:10;}
	.st1{fill:#8A2BE2;stroke:#231F20;stroke-linecap:round;stroke-miterlimit:10;}
	.st2{fill:#8A2BE2;stroke:#000000;stroke-width:0.5;stroke-miterlimit:10;}
	.st3{font-family:'Roboto-Bold';}
	.st4{font-size:37px;}
	.st5{fill:#ED1C24;stroke:#000000;stroke-width:0.5;stroke-miterlimit:10;}
	.st6{font-size:25px;}
</style>
<line class="st0" x1="25.7" y1="9.8" x2="37.3" y2="9.9"/>
<line class="st0" x1="41.9" y1="16.1" x2="36.7" y2="9.8"/>
<line class="st0" x1="65.7" y1="15.9" x2="41.1" y2="15.8"/>
<line class="st0" x1="66" y1="24.3" x2="40.2" y2="24.3"/>
<line class="st0" x1="66" y1="33.2" x2="44.1" y2="33.2"/>
<line class="st0" x1="26.4" y1="38.2" x2="40.2" y2="38.3"/>
<line class="st0" x1="14.9" y1="32" x2="21.7" y2="32"/>
<line class="st0" x1="27.1" y1="38.4" x2="20.9" y2="31.8"/>
<line class="st0" x1="44.7" y1="33" x2="39.5" y2="38.3"/>
<line class="st0" x1="28.7" y1="48" x2="48.5" y2="48"/>
<line class="st0" x1="66" y1="41.8" x2="53.1" y2="41.8"/>
<line class="st0" x1="48" y1="48.2" x2="53.7" y2="41.6"/>
<ellipse class="st1" cx="22.4" cy="9.7" rx="4" ry="3.6"/>
<ellipse class="st1" cx="36.2" cy="24" rx="4" ry="3.6"/>
<ellipse class="st1" cx="11.1" cy="31.8" rx="4" ry="3.6"/>
<ellipse class="st1" cx="25.1" cy="48.4" rx="4" ry="3.6"/>
<text transform="matrix(1 0 0 1 62.2301 29.6347)" class="st2 st3 st4">C</text>
<text transform="matrix(1 0 0 1 62.1088 55.8224)" class="st2 st3 st4">C</text>
<g transform="translate(0.000000,1280.000000) scale(0.100000,-0.100000)">
	<path class="st5" d="M1798.1,12733.9c-47.6-3-91.7-29.4-114.8-68.9c-13.9-23.8-20.2-49.7-19.2-80.1c0.8-26.1,6.3-48.4,18.1-72.7
		c12.7-26.3,30.6-49.9,59.1-77.9c18.5-18.2,25.3-23.8,90.2-75.8c22.1-17.7,32.5-26.6,43.6-37.9c12.8-12.9,18.5-20.8,30-42.3
		c5.4-10,10.1-18,10.4-17.7c0.3,0.4,4.5,8,9.5,17.2c13.4,24.9,17,29.8,34.1,46.5c12.5,12.2,24.2,22.1,56,47.2
		c24.3,19.2,38.8,31,50.2,40.9c62,53.5,93.7,103.5,100.1,158c1.2,10.5,1,31.5-0.4,41.6c-6.7,47.7-34.7,86.3-77.5,107.1
		c-21.4,10.3-41.4,14.9-65.3,14.9c-30.6,0-58.4-9.1-81.2-26.3c-6.6-5.1-17.9-16.1-23.5-23.1l-2.6-3.1l-5.1,6.3
		C1884.4,12719.6,1842.9,12736.7,1798.1,12733.9z M1818.2,12707.4c26.5-2.6,47.9-12.3,65.3-29.8c9.9-10,13.1-14.8,23.2-34.8l8.5-17
		l6.3,13.1c12.2,25.6,20.3,36.4,36.4,48.5c11.4,8.6,29.5,16.2,45,18.9c8.9,1.5,28.1,1.7,36.7,0.4c27.2-4.3,49.1-15.2,67.5-33.7
		c19.9-19.9,30.1-42.6,32.6-72.8c2.1-25-3.2-51.3-15.8-77c-18.3-37.4-48.5-70-109.6-118.4c-46.6-36.9-60.1-48.1-74.1-61.6
		c-7.8-7.5-18.2-19.3-22.7-25.6l-2.4-3.5l-5.2,6.8c-6.7,8.9-28.2,30.3-41.9,41.9c-6,5.1-22.9,18.7-37.4,30.2s-31.2,24.9-37,29.7
		c-63.9,53.3-93.1,94.8-102.1,145.2c-0.6,3.5-1,11.5-1,22.1c0,14.4,0.2,17.7,1.7,24.9c4.2,20.7,13.7,40.1,26.9,54.6
		C1743.4,12696.2,1781.9,12710.9,1818.2,12707.4z"/>
	<path class="st5" d="M2011.7,12682.1c-17.7-19.9-29.3-45.1-33.7-74c-1.5-9.7-1.6-32.8-0.4-42.8c3.4-26.7,13-52.8,27.9-77
		c5.5-8.8,17-24.5,23.6-32.2c2.5-2.9,4.8-5.5,5.1-5.9c0.4-0.5,9.2,6.9,18.2,15.5l1.8,1.6l-5.7,6.9c-24.9,29.8-39.5,59.5-44,89.5
		c-4.9,33.1,1.1,63.5,17.8,88.9c4.7,7.1,16.9,20.1,23.5,25.1c2.4,1.8,4.4,3.5,4.5,3.8c0.1,1.5-18.5,4.4-28,4.4h-7L2011.7,12682.1z"
		/>
	<path class="st5" d="M2116.1,12729.7c-1-0.4-0.2-1.3,4.1-4.4c7.3-5.1,17.5-13.7,23.3-19.9c4.6-4.9,5.1-5.2,12.4-7.6
		c21.6-7.1,39.9-20.6,52-38.4c2.5-3.6,8.1-13.7,12.3-22.4l7.7-15.6l7.8,15.9c8.8,18,13.2,24.8,22,34.2
		c14.2,14.9,32.8,25.2,53.7,29.6c30.8,6.4,65.3-0.4,91.3-17.9c25.5-17.3,41.4-41.2,48-72.1c2.2-10.5,2.8-31.5,1.2-43.7
		c-4-30.1-17.2-59-40.6-88.4c-8.6-10.8-36.4-39-50.2-50.8c-9.8-8.3-32.4-26.7-60.7-49.1c-35.1-27.8-55.7-47-68.1-63.6l-4.3-5.7
		l-3.7,5c-12.2,16.5-29.6,33.1-63.4,60.1c-9.2,7.4-25.2,20.2-35.6,28.5c-10.3,8.3-19.1,15.1-19.7,15.4c-0.9,0.4-19.4-16.7-19.1-17.6
		c0.3-0.8,12.3-10.6,31.4-25.8c44.9-35.5,58.3-46.9,72.2-61.4c12.2-12.7,16.1-18.2,27.6-39.6c5.2-9.6,9.8-17.7,10-18
		c0.3-0.3,4.5,6.8,9.3,15.8c11.2,20.7,15.3,27.1,24.4,37.2c12.4,13.9,27.6,27,65.4,57c41.9,33.1,57.6,46.4,76.2,64.7
		c53.8,52.8,78.1,104.1,76.1,160.5c-1,28.1-8.2,52-22.3,73.8c-38,58.9-118.7,81.5-181.7,50.9c-17.8-8.6-35.3-22.9-45.5-37.1
		l-1.5-2.1l-4.1,5.1c-20.8,25.5-49.8,41.7-83.1,46.3C2131,12729.7,2117.8,12730.4,2116.1,12729.7z"/>
</g>
<text transform="matrix(1 0 0 1 85.945 23.0307)" class="st2 st3 st6">ommute</text>
<text transform="matrix(1 0 0 1 84.735 49.6586)" class="st2 st3 st6">onnection</text>
</svg>
