<?xml version="1.0" encoding="utf-8"?>
<!-- Generator: Adobe Illustrator 24.0.1, SVG Export Plug-In . SVG Version: 6.00 Build 0)  -->
<svg version="1.1" id="Layer_1" xmlns="http://www.w3.org/2000/svg" xmlns:xlink="http://www.w3.org/1999/xlink" x="0px" y="0px"
	 viewBox="0 0 250 65" style="enable-background:new 0 0 250 65;" xml:space="preserve">
<style type="text/css">
	.st0{fill:#8A2BE2;stroke:#000000;stroke-miterlimit:10;}
	.st1{fill:#8A2BE2;stroke:#231F20;stroke-linecap:round;stroke-miterlimit:10;}
	.st2{fill:#8A2BE2;stroke:#000000;stroke-width:0.5;stroke-miterlimit:10;}
	.st3{font-family:'Montserrat-Bold';}
	.st4{font-size:37px;}
	.st5{fill:#ED1C24;stroke:#000000;stroke-width:0.5;stroke-miterlimit:10;}
	.st6{font-size:25px;}
</style>
<line class="st0" x1="27.2" y1="10.1" x2="39.3" y2="10.2"/>
<line class="st0" x1="44" y1="17.1" x2="38.6" y2="10.2"/>
<line class="st0" x1="68.6" y1="16.9" x2="43.2" y2="16.8"/>
<line class="st0" x1="69" y1="26.2" x2="42.2" y2="26.2"/>
<line class="st0" x1="69" y1="36.2" x2="46.3" y2="36.2"/>
<line class="st0" x1="27.9" y1="41.7" x2="42.2" y2="41.8"/>
<line class="st0" x1="16" y1="34.8" x2="23" y2="34.8"/>
<line class="st0" x1="28.7" y1="41.9" x2="22.2" y2="34.6"/>
<line class="st0" x1="46.9" y1="35.9" x2="41.5" y2="41.8"/>
<line class="st0" x1="30.3" y1="52.5" x2="50.8" y2="52.5"/>
<line class="st0" x1="69" y1="45.7" x2="55.6" y2="45.7"/>
<line class="st0" x1="50.3" y1="52.7" x2="56.3" y2="45.5"/>
<ellipse class="st1" cx="23.8" cy="10" rx="4.1" ry="4"/>
<ellipse class="st1" cx="38.1" cy="26" rx="4.1" ry="4"/>
<ellipse class="st1" cx="12.1" cy="34.5" rx="4.1" ry="4"/>
<ellipse class="st1" cx="26.6" cy="53" rx="4.1" ry="4"/>
<text transform="matrix(1 0 0 1 61.2301 30.6347)" class="st2 st3 st4">C</text>
<text transform="matrix(1 0 0 1 61.1088 54.8224)" class="st2 st3 st4">C</text>
<g transform="translate(0.000000,1280.000000) scale(0.100000,-0.100000)">
	<path class="st5" d="M2058.8,12742.4c-28-1.7-53.9-16.8-67.5-39.5c-8.2-13.6-11.9-28.4-11.3-45.9c0.5-15,3.7-27.7,10.6-41.6
		c7.5-15.1,18-28.6,34.7-44.6c10.9-10.4,14.9-13.7,53-43.4c13-10.1,19.1-15.3,25.6-21.7c7.5-7.4,10.9-11.9,17.6-24.2
		c3.2-5.7,5.9-10.3,6.1-10.1c0.2,0.2,2.7,4.6,5.6,9.8c7.9,14.2,10,17.1,20,26.6c7.4,7,14.2,12.6,32.9,27.1
		c14.3,11,22.8,17.8,29.5,23.4c36.5,30.6,55.1,59.3,58.8,90.5c0.7,6,0.6,18-0.2,23.8c-4,27.3-20.4,49.5-45.6,61.3
		c-12.6,5.9-24.3,8.5-38.4,8.5c-18,0-34.4-5.2-47.7-15.1c-3.9-2.9-10.5-9.2-13.8-13.2l-1.5-1.8l-3,3.6
		C2109.5,12734.2,2085.1,12744,2058.8,12742.4z M2070.7,12727.3c15.6-1.5,28.1-7.1,38.4-17.1c5.8-5.7,7.7-8.5,13.6-19.9l5-9.7
		l3.7,7.5c7.2,14.7,11.9,20.8,21.4,27.8c6.7,4.9,17.4,9.3,26.5,10.8c5.2,0.9,16.5,1,21.6,0.2c16-2.5,28.9-8.7,39.7-19.3
		c11.7-11.4,17.7-24.4,19.2-41.7c1.2-14.3-1.9-29.4-9.3-44.1c-10.8-21.4-28.5-40.1-64.4-67.8c-27.4-21.1-35.3-27.6-43.5-35.3
		c-4.6-4.3-10.7-11-13.4-14.7l-1.4-2l-3.1,3.9c-4,5.1-16.6,17.4-24.7,24c-3.5,2.9-13.4,10.7-22,17.3c-8.5,6.6-18.3,14.2-21.8,17
		c-37.5,30.5-54.7,54.3-60,83.1c-0.3,2-0.6,6.6-0.6,12.7c0,8.2,0.1,10.1,1,14.2c2.5,11.9,8.1,23,15.8,31.3
		C2026.7,12720.8,2049.3,12729.3,2070.7,12727.3z"/>
	<path class="st5" d="M2184.4,12712.8c-10.4-11.4-17.2-25.8-19.8-42.4c-0.9-5.5-0.9-18.8-0.2-24.5c2-15.3,7.6-30.3,16.4-44.1
		c3.2-5,10-14,13.9-18.4c1.5-1.6,2.8-3.2,3-3.4c0.3-0.3,5.4,4,10.7,8.9l1,0.9l-3.4,4c-14.7,17.1-23.2,34.1-25.9,51.3
		c-2.9,19,0.6,36.3,10.5,50.9c2.8,4.1,10,11.5,13.8,14.4c1.4,1.1,2.6,2,2.6,2.2c0,0.8-10.9,2.5-16.5,2.5h-4.1L2184.4,12712.8z"/>
	<path class="st5" d="M2245.7,12740c-0.6-0.3-0.1-0.7,2.4-2.5c4.3-2.9,10.3-7.9,13.7-11.4c2.7-2.8,3-3,7.3-4.4
		c12.7-4.1,23.4-11.8,30.6-22c1.5-2.1,4.7-7.9,7.2-12.8l4.5-9l4.6,9.1c5.2,10.3,7.8,14.2,12.9,19.6c8.3,8.5,19.3,14.5,31.6,17
		c18.1,3.7,38.4-0.2,53.7-10.2c15-9.9,24.4-23.6,28.2-41.3c1.3-6,1.6-18,0.7-25c-2.3-17.2-10.1-33.8-23.9-50.6
		c-5-6.2-21.4-22.3-29.5-29.1c-5.7-4.8-19.1-15.3-35.7-28.2c-20.6-15.9-32.7-26.9-40-36.4l-2.5-3.3l-2.2,2.9
		c-7.2,9.5-17.4,18.9-37.3,34.4c-5.4,4.2-14.8,11.6-20.9,16.3c-6.1,4.7-11.2,8.7-11.6,8.8c-0.5,0.2-11.4-9.6-11.2-10.1
		c0.2-0.5,7.2-6.1,18.4-14.8c26.4-20.3,34.3-26.8,42.5-35.2c7.2-7.3,9.4-10.4,16.2-22.7c3.1-5.5,5.7-10.1,5.9-10.3
		c0.2-0.2,2.6,3.9,5.5,9c6.6,11.9,9,15.5,14.4,21.3c7.3,7.9,16.2,15.5,38.4,32.6c24.6,19,33.8,26.6,44.8,37.1
		c31.6,30.2,45.9,59.6,44.7,91.9c-0.6,16.1-4.8,29.8-13.1,42.3c-22.3,33.7-69.8,46.7-106.8,29.2c-10.5-4.9-20.7-13.1-26.8-21.3
		l-0.9-1.2l-2.4,2.9c-12.2,14.6-29.3,23.9-48.8,26.5C2254.5,12740,2246.8,12740.4,2245.7,12740z"/>
</g>
<text transform="matrix(1 0 0 1 85.945 27.0307)" class="st2 st3 st6">ommute</text>
<text transform="matrix(1 0 0 1 85.735 50.6586)" class="st2 st3 st6">onnection</text>
</svg>
