<?xml version="1.0" encoding="utf-8"?>
<!-- Generator: Adobe Illustrator 24.0.1, SVG Export Plug-In . SVG Version: 6.00 Build 0)  -->
<svg version="1.1" id="Layer_1" xmlns="http://www.w3.org/2000/svg" xmlns:xlink="http://www.w3.org/1999/xlink" x="0px" y="0px"
	 viewBox="0 0 250 65" style="enable-background:new 0 0 250 65;" xml:space="preserve">
<style type="text/css">
	.st0{fill:#8A2BE2;stroke:#000000;stroke-miterlimit:10;}
	.st1{fill:#8A2BE2;stroke:#231F20;stroke-linecap:round;stroke-miterlimit:10;}
	.st2{fill:#8A2BE2;stroke:#000000;stroke-width:0.5;stroke-miterlimit:10;}
	.st3{font-family:'Montserrat-Bold';}
	.st4{font-size:29.9973px;}
	.st5{font-size:31.9575px;}
	.st6{fill:#ED1C24;stroke:#000000;stroke-width:0.5;stroke-miterlimit:10;}
	.st7{font-size:25px;}
</style>
<line class="st0" x1="20.2" y1="13.4" x2="32.3" y2="13.5"/>
<line class="st0" x1="37" y1="19.2" x2="31.6" y2="13.4"/>
<line class="st0" x1="61.6" y1="19" x2="36.2" y2="18.9"/>
<line class="st0" x1="62" y1="26.7" x2="35.2" y2="26.7"/>
<line class="st0" x1="62" y1="34.8" x2="39.3" y2="34.8"/>
<line class="st0" x1="20.9" y1="39.4" x2="35.2" y2="39.5"/>
<line class="st0" x1="9" y1="33.7" x2="16" y2="33.7"/>
<line class="st0" x1="21.7" y1="39.6" x2="15.2" y2="33.5"/>
<line class="st0" x1="39.9" y1="34.6" x2="34.5" y2="39.5"/>
<line class="st0" x1="23.3" y1="48.3" x2="43.8" y2="48.3"/>
<line class="st0" x1="62" y1="42.7" x2="48.6" y2="42.7"/>
<line class="st0" x1="43.3" y1="48.5" x2="49.3" y2="42.5"/>
<ellipse class="st1" cx="16.8" cy="13.3" rx="4.1" ry="3.3"/>
<ellipse class="st1" cx="31.1" cy="26.4" rx="4.1" ry="3.3"/>
<ellipse class="st1" cx="5.1" cy="33.5" rx="4.1" ry="3.3"/>
<ellipse class="st1" cx="19.6" cy="48.7" rx="4.1" ry="3.3"/>
<text transform="matrix(1.2334 0 0 1 54.23 30.4971)" class="st2 st3 st4">C</text>
<text transform="matrix(1.1578 0 0 1 54.1089 54.1641)" class="st2 st3 st5">C</text>
<g transform="translate(0.000000,1280.000000) scale(0.100000,-0.100000)">
	<path class="st6" d="M1698.9,12632.4c-28-1.7-54-17.4-67.6-40.8c-8.2-14.1-11.9-29.4-11.3-47.4c0.5-15.5,3.7-28.6,10.7-43
		c7.5-15.6,18-29.5,34.8-46c10.9-10.7,14.9-14.1,53.1-44.8c13-10.5,19.1-15.8,25.6-22.4c7.6-7.6,10.9-12.3,17.7-25
		c3.2-5.9,6-10.6,6.1-10.5c0.2,0.2,2.7,4.8,5.6,10.2c7.9,14.7,10,17.6,20.1,27.5c7.4,7.2,14.2,13,33,27.9
		c14.3,11.3,22.8,18.3,29.6,24.2c36.5,31.6,55.2,61.2,58.9,93.4c0.7,6.2,0.6,18.6-0.2,24.6c-4,28.2-20.4,51.1-45.6,63.3
		c-12.6,6.1-24.4,8.8-38.4,8.8c-18,0-34.4-5.4-47.8-15.6c-3.9-3-10.5-9.5-13.9-13.7l-1.5-1.8l-3,3.8
		C1749.8,12624,1725.3,12634.1,1698.9,12632.4z M1710.8,12616.8c15.6-1.5,28.2-7.3,38.5-17.6c5.8-5.9,7.7-8.7,13.6-20.6l5-10
		l3.7,7.8c7.2,15.1,12,21.5,21.5,28.7c6.7,5.1,17.4,9.6,26.5,11.2c5.2,0.9,16.5,1,21.6,0.2c16-2.5,28.9-9,39.8-19.9
		c11.7-11.8,17.7-25.2,19.2-43.1c1.3-14.8-1.9-30.3-9.3-45.5c-10.8-22.1-28.5-41.4-64.6-70c-27.4-21.8-35.4-28.5-43.6-36.4
		c-4.6-4.4-10.7-11.4-13.4-15.1l-1.4-2.1l-3.1,4c-4,5.3-16.6,17.9-24.7,24.8c-3.5,3-13.5,11-22,17.9s-18.4,14.7-21.8,17.6
		c-37.6,31.5-54.8,56.1-60.1,85.8c-0.3,2.1-0.6,6.8-0.6,13.1c0,8.5,0.1,10.5,1,14.7c2.5,12.3,8.1,23.7,15.8,32.3
		C1666.8,12610.1,1689.4,12618.9,1710.8,12616.8z"/>
	<path class="st6" d="M1824.8,12601.8c-10.4-11.7-17.3-26.7-19.9-43.8c-0.9-5.7-0.9-19.4-0.2-25.3c2-15.8,7.6-31.2,16.5-45.5
		c3.2-5.2,10-14.5,13.9-19c1.5-1.7,2.8-3.3,3-3.5c0.3-0.3,5.4,4.1,10.7,9.2l1,1l-3.4,4.1c-14.7,17.6-23.3,35.2-25.9,52.9
		c-2.9,19.6,0.6,37.5,10.5,52.6c2.8,4.2,10,11.9,13.9,14.8c1.4,1.1,2.6,2.1,2.6,2.2c0,0.9-10.9,2.6-16.5,2.6h-4.1L1824.8,12601.8z"
		/>
	<path class="st6" d="M1886.2,12629.9c-0.6-0.3-0.1-0.7,2.4-2.6c4.3-3,10.3-8.1,13.7-11.7c2.7-2.9,3-3.1,7.3-4.5
		c12.7-4.2,23.5-12.2,30.6-22.7c1.5-2.1,4.7-8.1,7.3-13.2l4.5-9.3l4.6,9.4c5.2,10.6,7.8,14.7,13,20.2c8.3,8.8,19.3,14.9,31.6,17.5
		c18.1,3.8,38.4-0.2,53.8-10.6c15-10.2,24.4-24.4,28.2-42.6c1.3-6.2,1.6-18.6,0.7-25.8c-2.3-17.8-10.1-34.9-23.9-52.3
		c-5.1-6.4-21.4-23-29.6-30.1c-5.7-4.9-19.1-15.8-35.8-29.1c-20.7-16.5-32.8-27.8-40.1-37.6l-2.5-3.4l-2.2,3
		c-7.2,9.8-17.4,19.6-37.3,35.5c-5.4,4.4-14.9,12-20.9,16.8c-6.1,4.9-11.3,8.9-11.6,9.1c-0.5,0.2-11.4-9.9-11.3-10.4
		c0.2-0.5,7.3-6.3,18.5-15.2c26.5-21,34.3-27.7,42.5-36.3c7.2-7.5,9.5-10.8,16.3-23.4c3.1-5.7,5.7-10.5,5.9-10.6
		c0.2-0.2,2.6,4,5.5,9.3c6.6,12.3,9,16,14.4,22c7.3,8.2,16.2,16,38.5,33.7c24.7,19.6,33.9,27.5,44.9,38.3
		c31.7,31.2,46,61.5,44.8,94.9c-0.6,16.6-4.8,30.7-13.1,43.6c-22.4,34.8-69.9,48.2-107,30.1c-10.5-5.1-20.8-13.5-26.8-22l-0.9-1.3
		l-2.4,3c-12.3,15.1-29.3,24.7-48.9,27.4C1895,12629.9,1887.2,12630.4,1886.2,12629.9z"/>
</g>
<text transform="matrix(0.8292 0 0 1 78.9448 27.0308)" class="st2 st3 st7">ommute</text>
<text transform="matrix(0.8012 0 0 1 78.7354 50.6582)" class="st2 st3 st7">onnection</text>
</svg>
