<?xml version="1.0" encoding="utf-8"?>
<!-- Generator: Adobe Illustrator 24.0.1, SVG Export Plug-In . SVG Version: 6.00 Build 0)  -->
<svg version="1.1" id="Layer_1" xmlns="http://www.w3.org/2000/svg" xmlns:xlink="http://www.w3.org/1999/xlink" x="0px" y="0px"
	 viewBox="0 0 250 65" style="enable-background:new 0 0 250 65;" xml:space="preserve">
<style type="text/css">
	.st0{fill:#8A2BE2;stroke:#000000;stroke-miterlimit:10;}
	.st1{fill:#8A2BE2;stroke:#231F20;stroke-linecap:round;stroke-miterlimit:10;}
	.st2{fill:#8A2BE2;stroke:#231F20;stroke-width:0.75;stroke-miterlimit:10;}
	.st3{font-family:'Montserrat-Bold';}
	.st4{font-size:25px;}
	.st5{fill:#C30000;stroke:#231F20;stroke-width:0.75;stroke-miterlimit:10;}
</style>
<line class="st0" x1="29.8" y1="13.4" x2="39.1" y2="13.5"/>
<line class="st0" x1="42.8" y1="18.5" x2="38.8" y2="13.3"/>
<line class="st0" x1="61.7" y1="18.5" x2="42.1" y2="18.4"/>
<line class="st0" x1="62" y1="26.7" x2="41.4" y2="26.7"/>
<line class="st0" x1="62" y1="34.8" x2="44.5" y2="34.8"/>
<line class="st0" x1="30.3" y1="39.4" x2="41.1" y2="39.5"/>
<line class="st0" x1="21.1" y1="33.7" x2="26.6" y2="33.7"/>
<line class="st0" x1="30.9" y1="39.6" x2="26" y2="33.5"/>
<line class="st0" x1="45" y1="34.6" x2="40.8" y2="39.5"/>
<line class="st0" x1="32.2" y1="48.3" x2="48" y2="48.3"/>
<line class="st0" x1="62" y1="42.7" x2="51.7" y2="42.7"/>
<line class="st0" x1="47.6" y1="48.5" x2="52.2" y2="42.5"/>
<ellipse class="st1" cx="27.2" cy="13.3" rx="3.2" ry="3.3"/>
<ellipse class="st1" cx="38.2" cy="26.4" rx="3.2" ry="3.3"/>
<ellipse class="st1" cx="18.2" cy="33.5" rx="3.2" ry="3.3"/>
<ellipse class="st1" cx="29.3" cy="48.7" rx="3.2" ry="3.3"/>
<text transform="matrix(0.9482 0 0 1 56.6606 29.7158)" class="st2 st3 st4">Commute</text>
<text transform="matrix(0.9469 0 0 1 56.3301 47.624)" class="st5 st3 st4">Connection</text>
</svg>
