<?xml version="1.0" encoding="utf-8"?>
<!-- Generator: Adobe Illustrator 24.0.1, SVG Export Plug-In . SVG Version: 6.00 Build 0)  -->
<svg version="1.1" xmlns="http://www.w3.org/2000/svg" xmlns:xlink="http://www.w3.org/1999/xlink" x="0px" y="0px"
	 viewBox="0 0 1024 768" style="enable-background:new 0 0 1024 768;" xml:space="preserve">
<style type="text/css">
	.st0{fill:#614327;}
	.st1{fill:#ECB28C;}
	.st2{fill:#231F20;}
	.st3{fill:#686868;}
	.st4{fill:#212121;}
	.st5{fill:#444443;}
	.st6{display:none;}
	.st7{display:inline;fill:#FFFFFF;stroke:#231F20;stroke-width:4;stroke-linecap:round;stroke-miterlimit:10;}
	.st8{fill:#A0A0A0;}
	.st9{fill:#00A99D;}
	.st10{fill:none;stroke:#212121;stroke-width:2;stroke-miterlimit:10;}
	.st11{fill:#005C9B;}
</style>
<g id="Layer_2">
	<g id="XMLID_2_">
		<g>
			<path class="st0" d="M708,319.9c3.8-1.7,7.3-4.2,10.3-7.2c1.9-2,3.6-4.3,4.9-6.7c1.4-2.5,2-5.3,3.3-7.7c0.6-1,1.3-2.2,2.5-2.5
				c1.8-0.4,3.3,1.2,3.7,2.8c0.8,3.1-1.4,6.7-2.9,9.3c-3,5.3-7.3,9.7-12.2,13.3c-2.7,1.9-5.5,3.6-8.5,4.9c-2.4,1.1-4.9,2-7.4,2.8
				c0,0-0.1,0-0.1-0.1c-0.1,0-0.2-0.1-0.2-0.2c-0.8-0.7-0.8-2.1,0-2.8c0.3-0.3,0.7-0.6,1.2-0.9c0.2-0.1,0.5-0.2,0.7-0.3
				c0.2-0.6,0.3-1.3,0.4-1.9c0.2-0.6,0.4-1.1,0.7-1.5C705.7,320.8,706.9,320.4,708,319.9z"/>
			<path class="st0" d="M700.1,300.7c-0.1,0.5-0.4,1-0.6,1.5c-0.1,0.3-0.2,0.7-0.3,1c-0.1,0.8-0.1,1.7-0.3,2.5
				c-0.1,0.7-0.8,1.2-1.5,1.4c-3-2.8-3.4-7.1-4-10.9c-0.4-2.6-0.8-5.3-1.2-7.9c-0.3-1.7-1.5-6.4,1.8-5.4c2.1,0.7,2.9,3.4,3.2,5.4
				c0.4,2.2,0.2,4.4,0.5,6.6C698.1,296.9,698.8,299.1,700.1,300.7z"/>
			<path d="M708.6,318.1c4.9-2.5,9.2-6.3,12.1-11c1.7-2.7,2.6-5.6,3.8-8.5c1-2.3,2.7-4.8,5.5-4.5c3,0.4,4.6,3.6,4.4,6.3
				c-0.2,3.3-2.1,6.6-3.8,9.3c-3.3,5.4-7.9,10-13.2,13.6c-4.2,2.9-9.1,5.5-14.1,7.1c0.3-0.6,0.6-1.3,0.8-1.9c0,0,0,0-0.1,0
				c0,0,0,0,0,0c-0.7,0.7-1.7,0.7-2.5,0.3c2.5-0.8,5-1.6,7.4-2.8c3-1.4,5.8-3,8.5-4.9c4.9-3.5,9.2-8,12.2-13.3
				c1.5-2.6,3.7-6.2,2.9-9.3c-0.4-1.6-1.9-3.3-3.7-2.8c-1.2,0.3-2,1.4-2.5,2.5c-1.3,2.5-2,5.3-3.3,7.7c-1.3,2.4-3,4.7-4.9,6.7
				c-2.9,3.1-6.4,5.5-10.3,7.2c-0.8-0.6-2-0.6-2.7,0.1c-0.3,0.4-0.7,0.8-0.9,1.2c-0.3,0.1-0.5,0.2-0.8,0.2c-0.8,0.2-1.1-1-0.3-1.2
				c0.9-0.3,1.8-0.6,2.6-0.9C706.9,319,707.8,318.6,708.6,318.1z"/>
			<path d="M721.7,271.1c3.9,5.6,2.3,13.1,0,19c-2.8,7.2-6.6,14.2-9.9,21.2c-1.1,2.3-2.1,4.6-3.2,6.9c-0.8,0.4-1.7,0.8-2.6,1.2
				l-0.2-0.6c1.2-2.5,2.3-5.1,3.5-7.6c3.3-7,6.9-13.8,9.8-21c2.4-6,4.4-14.1-0.7-19.3c-1.3-1.4-3.1-2.5-5-3.1
				c0.2-0.5,0.4-0.9,0.6-1.4c0.2-0.5,0-0.9-0.4-1.2C716.8,266.2,719.8,268.4,721.7,271.1z"/>
			<path class="st0" d="M718.3,270.9c5.1,5.2,3.1,13.3,0.7,19.3c-2.9,7.1-6.5,14-9.8,21c-1.2,2.5-2.3,5-3.5,7.6l0.2,0.6
				c-0.9,0.3-1.8,0.6-2.6,0.9c-0.8,0.2-0.4,1.4,0.3,1.2c0.3-0.1,0.5-0.1,0.8-0.2c-0.3,0.5-0.5,1-0.7,1.5c-0.2,0.6-0.2,1.3-0.4,1.9
				c-0.3,0.1-0.5,0.2-0.7,0.3c-0.4,0.2-0.8,0.5-1.2,0.9c-0.8,0.7-0.8,2.1,0,2.8c0.1,0.1,0.2,0.1,0.2,0.2c0,0,0,0.1,0,0.1
				c-0.7,0.2-1.4,0.4-2.1,0.7c-1.2,0.4-0.7,2.1,0.5,1.8c0.2,0,0.3-0.1,0.5-0.1c-0.3,0.6-0.5,1.2-0.8,1.7
				c-12.4,28.1-24,56.7-34.6,85.5c-3.9,10.5-7.7,21.1-11.4,31.8c-0.5,1.4-1,2.9-1.5,4.3c-0.1-0.1-0.3-0.1-0.4-0.2
				c-1-0.5-2-1.1-2.9-1.8c-0.9-0.6-1.7-1.2-2.5-1.9c0.7-2.1,1.3-4.2,2-6.3c0.8-2.7,1.7-5.4,2.5-8.1c8.7-27,17.9-53.9,27.7-80.5
				c5.8-15.8,11.8-31.6,18-47.3c0.8,0.4,1.7-0.7,1-1.4c-0.1-0.1-0.1-0.1-0.2-0.2c0.7-0.2,1.3-0.6,1.5-1.4c0.2-0.8,0.2-1.7,0.3-2.5
				c0.1-0.4,0.2-0.7,0.3-1c0.2-0.5,0.4-1,0.6-1.5c0.7,0.9,1.6,1.6,2.8,2c0.7,0.2,1.1-0.8,0.5-1.1c-1.3-0.6-2.2-1.5-2.8-2.5
				c3-7.6,6.1-15.1,9.3-22.7c1.2-2.8,2.4-5.7,3.5-8.5C715.2,268.4,717,269.5,718.3,270.9z"/>
			<path d="M713.5,265.3c0.4,0.3,0.6,0.7,0.4,1.2c-0.2,0.5-0.4,0.9-0.6,1.4c-0.5-0.1-0.9-0.3-1.4-0.3c0.6-0.7,0.6-1.6,0.4-2.4
				c0,0,0.1,0,0.1,0c0,0,0,0,0,0C712.8,265.1,713.2,265.2,713.5,265.3z"/>
			<path d="M713.3,267.8c-1.2,2.8-2.4,5.7-3.5,8.5c-3.1,7.5-6.2,15.1-9.3,22.7c-0.6-1-0.9-2.1-1.1-3.3c4.1-10.1,8.2-20.1,12.4-30.1
				c0.1-0.3,0.3-0.4,0.5-0.5c0.2,0.8,0.2,1.7-0.4,2.4C712.4,267.5,712.9,267.6,713.3,267.8z"/>
			<path d="M713.5,265.3c-0.3-0.1-0.7-0.2-1-0.2C712.8,265,713.2,265,713.5,265.3z"/>
			<path d="M712.3,265c0,0,0.1,0,0.1,0C712.4,265,712.4,265,712.3,265C712.4,265,712.4,265,712.3,265z"/>
			<path d="M705.4,320c0.7-0.8,1.9-0.7,2.7-0.1c-1.2,0.5-2.4,1-3.6,1.3C704.7,320.8,705,320.4,705.4,320z"/>
			<path d="M704.3,328.6c-0.3,0.6-0.5,1.3-0.8,1.9c-0.5,0.2-1,0.3-1.5,0.5c-0.1,0.1-0.2,0.2-0.4,0.2c-0.4,0.1-0.7,0.1-1.1,0.2
				c0.4-0.8,0.7-1.6,1.1-2.4c0,0,0.1,0,0.1-0.1C702.5,329.4,703.5,329.3,704.3,328.6C704.3,328.6,704.3,328.6,704.3,328.6
				C704.3,328.6,704.3,328.6,704.3,328.6z"/>
			<path d="M703.5,330.5c-0.6,1.4-1.2,2.8-1.9,4.2c-13.2,30-25.4,60.3-36.7,91.1c-3.2,8.7-6.3,17.5-9.3,26.2
				c-0.3-0.4-0.6-0.8-0.9-1.2l-1-0.4c3.7-10.6,7.5-21.3,11.4-31.8c10.7-28.8,22.2-57.4,34.6-85.5c0.3-0.6,0.5-1.2,0.8-1.7
				c0.4-0.1,0.7-0.1,1.1-0.2c0.2,0,0.3-0.1,0.4-0.2C702.5,330.8,703,330.6,703.5,330.5z"/>
			<path d="M703.3,301.5c0.6,0.3,0.2,1.4-0.5,1.1c-1.1-0.4-2-1.1-2.8-2c0.1-0.3,0.1-0.6,0.1-0.9c0.1-0.3,0.2-0.6,0.3-0.8
				C701.2,300,702,300.9,703.3,301.5z"/>
			<path d="M701.8,328.9c0,0-0.1,0-0.1,0.1C701.6,328.9,701.6,328.9,701.8,328.9C701.7,328.9,701.7,328.9,701.8,328.9z"/>
			<path d="M701.6,329c-0.4,0.8-0.7,1.6-1.1,2.4c-0.2,0-0.3,0.1-0.5,0.1c-1.2,0.2-1.7-1.5-0.5-1.8
				C700.2,329.4,700.9,329.2,701.6,329z"/>
			<path d="M700.5,299c-0.1,0.3-0.2,0.6-0.3,0.8c0-0.1,0-0.3,0-0.4c0-0.5-0.2-1-0.6-1.4c-0.2-0.2-0.6-0.4-0.9-0.5
				c0.2-0.6,0.5-1.2,0.7-1.8C699.6,296.9,700,298,700.5,299z"/>
			<path d="M700.2,299.4c0,0.1,0,0.3,0,0.4c0,0.3-0.1,0.6-0.1,0.9c-1.3-1.6-2-3.7-2.2-5.8c-0.3-2.2-0.2-4.4-0.5-6.6
				c-0.3-1.9-1.1-4.7-3.2-5.4c-3.3-1-2.1,3.7-1.8,5.4c0.4,2.6,0.8,5.3,1.2,7.9c0.6,3.8,1,8.2,4,10.9c-0.1,0-0.1,0-0.2,0
				c-0.3,0-0.6,0-0.8,0c-0.5-0.1-0.9-0.5-1.2-0.9c0,0,0-0.1-0.1-0.1c-0.1,0.3-0.2,0.5-0.3,0.7c-1.8-2.5-2.4-5.7-2.9-8.7
				c-0.4-2.3-0.7-4.6-1.1-6.9c-0.3-2.1-0.9-4.4-0.9-6.5c0-3.6,3.9-4.5,6.3-2.3c3.5,3.2,2.4,8.8,3.1,13.3c-0.2,0.6-0.5,1.2-0.7,1.8
				c0.3,0.1,0.7,0.3,0.9,0.5C700,298.4,700.2,298.9,700.2,299.4z"/>
			<path d="M697.7,307.3c0.8,0.7-0.2,1.7-1,1.4c0.2-0.5,0.4-1,0.6-1.5c0.1,0,0.1,0,0.2,0C697.5,307.2,697.6,307.3,697.7,307.3z"/>
			<path d="M697.3,307.2c-0.2,0.5-0.4,1-0.6,1.5c-0.1,0-0.2-0.1-0.2-0.1c-0.6-0.5-1.1-1.1-1.5-1.7c0.1-0.3,0.2-0.5,0.3-0.7
				c0,0,0,0.1,0.1,0.1c0.3,0.4,0.7,0.8,1.2,0.9C696.7,307.2,697,307.2,697.3,307.2z"/>
			<path d="M696.5,308.5c0.1,0.1,0.1,0.1,0.2,0.1c-6.2,15.7-12.2,31.4-18,47.3c-9.8,26.6-19,53.5-27.7,80.5
				c-0.9,2.7-1.7,5.4-2.5,8.1l-0.5-0.2c-0.4-0.3-0.7-0.6-1.1-0.8c0.3-0.8,0.4-1.6,0.3-2.4c0-0.3-0.1-0.5-0.1-0.8v0
				c1.6-5.1,3.3-10.1,4.9-15.2c8.9-27.1,18.4-54,28.4-80.7c4.8-12.6,9.6-25.2,14.6-37.7C695.3,307.5,695.9,308,696.5,308.5z"/>
			<path d="M655.7,451.9c2.3,3.2,3.6,7,3,11c-0.9,5.8-5.6,10.2-10.9,12.4c0.3-0.8,0.5-1.6,0.8-2.5c-0.7,0.6-1.7,1.1-2.9,1.3
				c-0.2,0.7-0.5,1.4-0.7,2.1c-2.2,0.6-4.4,0.9-6.7,1c0.3-1.1,0.6-2.2,1-3.3c-0.4-0.1-0.8-0.2-1.2-0.4l0-0.5
				c3.7-0.1,7.4-0.8,10.5-2.7c4.4-2.6,7.2-7.5,5.6-12.6c0-0.1-0.1-0.3-0.1-0.4c0,0,0.1,0,0.1,0c0.5-0.1,0.8-0.8,0.5-1.2
				c-0.1-0.2-0.2-0.3-0.4-0.4C654.8,454.5,655.2,453.2,655.7,451.9z"/>
			<path d="M655.7,451.9c-0.4,1.3-0.9,2.5-1.3,3.8c-0.1-0.1-0.2-0.2-0.3-0.2c-0.2-0.1-0.5-0.2-0.7-0.3c0,0-0.1,0-0.1-0.1
				c0.8-0.5,1.3-1.4,1.3-2.4c0-0.9,0-1.3,0.2-2C655.1,451.1,655.4,451.5,655.7,451.9z"/>
			<path d="M654.7,456.2c0.3,0.4,0,1.1-0.5,1.2c0,0-0.1,0-0.1,0c0-0.2-0.1-0.3-0.2-0.4c0.1-0.4,0.3-0.8,0.4-1.2
				C654.5,455.9,654.6,456,654.7,456.2z"/>
			<path d="M653.8,450.4l1,0.4c-0.2,0.6-0.2,1.1-0.2,2c0,1-0.6,1.9-1.3,2.4c-0.3-0.1-0.6-0.3-0.9-0.5
				C652.8,453.2,653.3,451.8,653.8,450.4z"/>
			<path class="st1" d="M654.3,457.8c1.6,5.1-1.2,9.9-5.6,12.6c-3.2,1.9-6.8,2.6-10.5,2.7c-2.4,0.1-4.8-0.1-7.2-0.3
				c-3.8-0.3-7.5-1-11.1-1.9c2.6-6.4,5.6-12.5,9-18.6c1.3-2.4,2.7-4.8,4.2-7.1c0.7,2.4,3,3.7,5.5,3.7c2.1,0,4.3-0.8,5.9-2.2
				c0.1,0.1,0.3,0.2,0.4,0.3c-0.2,0.6-0.4,1.1-0.5,1.7c-0.1-0.1-0.3-0.3-0.4-0.4c-0.7-0.7-1.6,0.3-1,1c0.3,0.4,0.6,0.7,0.9,1
				c1.3,1.4,2.7,2.7,4.2,3.8c0.9,0.7,1.9,1.3,2.9,1.8c0.5,0.3,1.1,0.6,1.6,0.8c0.2,0.1,0.5,0.2,0.7,0.3c0.4,0.2,0.6,0.2,1,0.1
				C654.2,457.5,654.2,457.7,654.3,457.8z"/>
			<path d="M654.4,455.8c-0.1,0.4-0.3,0.8-0.4,1.2c-0.2-0.6-0.5-1.2-0.8-1.7c0,0,0.1,0,0.1-0.1c0,0,0.1,0,0.1,0.1
				c0.2,0.1,0.5,0.2,0.7,0.3C654.2,455.6,654.3,455.7,654.4,455.8z"/>
			<path class="st2" d="M653.9,457c0.1,0.1,0.1,0.3,0.2,0.4c-0.4,0-0.6,0-1-0.1c-0.2-0.1-0.5-0.2-0.7-0.3c-0.5-0.3-1.1-0.5-1.6-0.8
				c-1-0.6-1.9-1.2-2.9-1.8c-1.5-1.1-2.9-2.4-4.2-3.8l0,0c0.9,0.2,1.7,0.4,2.5,0.8c0-0.1,0.1-0.3,0.1-0.4c0.8,0.7,1.6,1.3,2.5,1.9
				c0.9,0.6,1.9,1.2,2.9,1.8c0.1,0.1,0.3,0.1,0.4,0.2c-0.1,0.4-0.2,0.7-0.4,1.1c0.2,0.2,0.3,0.5,0.5,0.7c0.5,0.3,1,0.6,1.4,1
				C653.8,457.3,653.9,457.1,653.9,457z"/>
			<path d="M653.9,457c0,0.1-0.1,0.3-0.2,0.4c-0.4-0.4-0.9-0.7-1.4-1c-0.2-0.3-0.3-0.5-0.5-0.7c0.1-0.4,0.2-0.7,0.4-1.1
				c0.3,0.2,0.6,0.3,0.9,0.5c0,0-0.1,0.1-0.1,0.1C653.4,455.8,653.7,456.4,653.9,457z"/>
			<path d="M648.6,472.9c-0.3,0.8-0.5,1.7-0.8,2.5c0,0,0,0,0,0c-0.1,0.1-0.3,0.1-0.4,0.2c-0.8,0.3-1.5,0.5-2.3,0.7
				c0.2-0.7,0.4-1.4,0.7-2.1C646.9,473.9,647.9,473.5,648.6,472.9z"/>
			<path d="M648.4,444.5c-0.7,2.1-1.3,4.2-2,6.3c-0.7-0.6-1.5-1.3-2.1-2c0.2-0.6,0.3-1.1,0.5-1.7c0.3,0.2,0.6,0.4,0.8,0.6
				c-0.1-0.5-0.1-0.9,0-1.4c0.3-1.1,1.2-1.8,2.2-2L648.4,444.5z"/>
			<path d="M646.8,443.5c0.4,0.3,0.7,0.5,1.1,0.8c-1,0.2-1.9,0.9-2.2,2c-0.1,0.4-0.1,0.9,0,1.4c-0.3-0.2-0.6-0.4-0.8-0.6
				c0.1-0.3,0.2-0.6,0.3-0.9c0,0,0,0,0,0c0.1-0.1,0.2-0.3,0.4-0.4C646,445.1,646.5,444.4,646.8,443.5z"/>
			<path d="M647.4,475.5c0.1-0.1,0.3-0.1,0.4-0.2c-4.7,14.3-9.2,28.7-13.5,43.2c-8.4,28.3-15.9,56.9-22.6,85.6
				c-0.1-0.6-0.3-1.2-0.4-1.8c-0.1,0.2-0.3,0.5-0.5,0.7c0.1,0.7,0,1.3-0.3,1.9c0,0.6-0.2,1.3-0.5,1.8c0.5,1.2,0.2,2.8-0.9,3.6
				l-1-0.2c1.1-4.7,2.2-9.4,3.3-14.2c7.2-30.1,15.2-59.9,24.2-89.5c3.1-10.1,6.2-20.2,9.5-30.2C645.8,476,646.6,475.8,647.4,475.5z"
				/>
			<path d="M647.1,441.2c0.1,0.8-0.1,1.6-0.3,2.4c-0.2-0.2-0.4-0.3-0.6-0.5c0.3-0.9,0.6-1.8,0.8-2.7
				C647,440.6,647.1,440.9,647.1,441.2z"/>
			<path class="st2" d="M644.2,441.4C644.2,441.3,644.2,441.3,644.2,441.4c0-0.2-0.1-0.5-0.2-0.6c0,0-0.2-0.4-0.2-0.4
				c-0.1-0.1-0.3-0.3-0.5-0.4c-0.2-0.2-0.4-0.4-0.5-0.6c-0.1-0.2-0.2-0.4-0.2-0.6c-0.7-0.1-1.4-0.1-2.1,0c-1.1,0.2-2.1,0.6-2.9,1.3
				c-0.6,0.5-1.1,1.1-1.6,1.7l-0.6-0.4c0.6-0.9,1.1-1.7,1.7-2.6c0,0-0.1,0-0.1,0c-0.5,0-1-0.1-1.4-0.3c0.5-0.3,1-0.5,1.8-0.5
				c0.1,0,0.2,0,0.2,0c0.1-0.1,0.3-0.1,0.4-0.2c-0.3-0.2-0.6-0.3-0.8-0.5c2.3-1.3,5.4-1.6,7.8-0.3c0.4,0.2,0.6,0.6,0.6,1
				c0.3,0.3,0.6,0.6,0.8,0.9c0.3,0.5,0.5,1,0.6,1.5v0c-0.3,0.9-0.6,1.8-0.8,2.7c-0.5-0.3-0.9-0.6-1.4-1l-0.5-0.1c0,0,0,0,0-0.1
				c0-0.1,0-0.3,0-0.4C644.3,441.6,644.3,441.4,644.2,441.4z"/>
			<path d="M646.5,450.8c0,0.1-0.1,0.3-0.1,0.4c-0.8-0.3-1.7-0.6-2.5-0.8c0.2-0.5,0.3-1.1,0.5-1.6
				C645,449.5,645.7,450.2,646.5,450.8z"/>
			<path d="M646.1,443.1c0.2,0.2,0.4,0.3,0.6,0.5c-0.3,0.8-0.8,1.6-1.3,2.3c-0.1,0.1-0.2,0.3-0.4,0.4
				C645.5,445.2,645.8,444.1,646.1,443.1z"/>
			<path class="st2" d="M644.8,442.1c0.5,0.3,0.9,0.6,1.4,1c-0.3,1-0.7,2.1-1,3.2c0,0,0,0,0,0c-0.2,0.2-0.5,0.5-0.7,0.7
				c-0.2-0.1-0.4-0.3-0.5-0.4c-0.4-0.3-0.9-0.6-1.3-0.9c0.1,0,0.2-0.1,0.2-0.2C644.3,445,645,443.5,644.8,442.1z"/>
			<path class="st2" d="M645.1,446.2c-0.1,0.3-0.2,0.6-0.3,0.9c-0.1-0.1-0.3-0.2-0.4-0.3C644.7,446.7,644.9,446.5,645.1,446.2z"/>
			<path class="st2" d="M644.8,442.1c0.2,1.4-0.5,2.9-2,3.3c-0.1,0.1-0.1,0.1-0.2,0.2c0.5,0.3,0.9,0.6,1.3,0.9
				c0.2,0.1,0.4,0.3,0.5,0.4c-1.6,1.4-3.8,2.2-5.9,2.2c-2.5-0.1-4.9-1.4-5.5-3.7c0,0,0,0,0,0c0.8-1.3,1.7-2.6,2.5-3.9l0.6,0.4
				c-0.5,0.8-0.8,1.7-0.7,2.6c0.2,1.8,2.2,2.1,3.7,2c1.6-0.1,3.4-1.1,4.3-2.5c0.3-0.4,0.5-0.9,0.7-1.4c0-0.2,0.1-0.3,0.1-0.5
				L644.8,442.1z"/>
			<path class="st2" d="M644.3,448.8c-0.2,0.5-0.3,1.1-0.5,1.6l0,0c-0.3-0.3-0.6-0.7-0.9-1c-0.6-0.7,0.4-1.7,1-1
				C644,448.6,644.2,448.7,644.3,448.8z"/>
			<path class="st1" d="M644.3,441.6c0,0.1,0,0.3,0,0.4c0,0,0,0,0,0.1c0,0.1-0.1,0.3-0.1,0.5c-0.1,0.5-0.4,0.9-0.7,1.4
				c-0.9,1.3-2.7,2.3-4.3,2.5c-1.5,0.1-3.5-0.3-3.7-2c-0.1-0.9,0.2-1.8,0.7-2.6c0.4-0.7,1-1.3,1.6-1.7c0.9-0.7,1.9-1.1,2.9-1.3
				c0.7-0.1,1.4-0.1,2.1,0c0,0.2,0.1,0.4,0.2,0.6c0.2,0.2,0.3,0.4,0.5,0.6c0.1,0.1,0.4,0.3,0.5,0.4c0,0,0.2,0.4,0.2,0.4
				c0,0.1,0.1,0.4,0.2,0.5c0,0,0,0,0,0C644.3,441.4,644.3,441.6,644.3,441.6z"/>
			<path d="M639.4,708.2c3.7-4.4,2.7-10.7,1.2-15.8c-1.3-4.7-3.4-9.1-6-13.1c-2.7-4.2-6-8-9.8-11.2c1.3,0.1,2.6,0.1,4,0.1
				c4.1,3.8,7.6,8.3,10.3,13.2c4.9,8.8,9.9,23,0.6,30.7c-4.8,3.9-11,4.8-17,4.2c-5.4-0.5-10.7-1.9-15.7-3.8
				c-9.7-3.7-18.5-9.6-25.7-17.1c-3.6-3.7-6.8-7.8-9.5-12.2c-1-1.7-2-3.4-2.8-5.2c1,0,2,0,2.9-0.1c0.2,0,0.4,0,0.6,0
				c0.8,1.6,1.7,3.1,2.6,4.6c2.8,4.5,6.2,8.6,10,12.3c6.9,6.7,15.3,12,24.4,15.2C618.5,713.3,632.2,716.7,639.4,708.2z"/>
			<path class="st3" d="M640.6,692.4c1.5,5.1,2.5,11.3-1.2,15.8c-7.1,8.5-20.9,5.1-29.9,1.9c-9.1-3.2-17.5-8.5-24.4-15.2
				c-3.8-3.7-7.2-7.8-10-12.3c-1-1.5-1.8-3-2.6-4.6c4.5-0.2,9-0.6,13.5-1.3c0.2,0,0.4-0.1,0.5-0.2c-0.5,2.6-1,5.2-1.5,7.8
				c-0.3,1.7,2.3,2.5,2.7,0.9c2.3-0.8,4.4-2.3,5.8-4.2c3.7-4.8,4.6-11.4,5.6-17.3c8.3,2.6,16.9,4.1,25.6,4.5c3.8,3.2,7.1,7,9.8,11.2
				C637.2,683.3,639.2,687.7,640.6,692.4z"/>
			<path d="M639.3,474c-0.3,1.1-0.7,2.2-1,3.3c-0.6,0-1.1,0-1.7,0c0,0,0-0.1,0.1-0.1c0.8-0.9,0.4-2.1-0.3-2.7c0-0.1,0.1-0.3,0.1-0.5
				c0.5-0.1,1-0.2,1.6-0.4C638.5,473.8,638.9,473.9,639.3,474z"/>
			<path class="st0" d="M638.3,477.2c2.3-0.1,4.5-0.4,6.7-1c-3.3,10-6.4,20.1-9.5,30.2c-9,29.6-17,59.5-24.2,89.5
				c-1.1,4.7-2.2,9.4-3.3,14.2c-2.4,10.3-4.6,20.7-6.8,31.1c-1.2,6-2.4,11.9-3.6,17.9c-0.3,1.6-0.6,3.3-0.9,4.9
				c-1.2,6.3-1.9,14.7-8,18.3c-0.2,0.1-0.5,0.3-0.7,0.4c1.6-8.5,3.3-17.1,5-25.6c3.8-18.7,7.8-37.3,12.2-55.8
				c1-4.4,2.1-8.9,3.1-13.3c5.6-23.3,11.6-46.5,18-69.6C630.3,504.6,634.3,490.9,638.3,477.2z"/>
			<path d="M638.1,473.1l0,0.5c-0.6,0.2-1.1,0.3-1.6,0.4c0,0.1-0.1,0.3-0.1,0.5c-0.6-0.5-1.5-0.6-2.2,0.2c-0.7,0.9-1.5,1.7-2.3,2.4
				c-1.5-0.1-2.9-0.3-4.4-0.5c-3.1-0.4-6.2-1-9.3-1.7c0.5-1.3,1-2.6,1.6-3.9c3.7,0.9,7.4,1.5,11.1,1.9
				C633.3,473,635.7,473.2,638.1,473.1z"/>
			<path class="st2" d="M637.2,437.2c0.3,0.2,0.6,0.4,0.8,0.5c-0.1,0.1-0.3,0.1-0.4,0.2c-0.1,0-0.1,0-0.2,0c-0.7,0-1.3,0.2-1.8,0.5
				c0,0-0.1,0-0.1,0c0.3-0.3,0.7-0.6,1-0.8C636.8,437.5,637,437.4,637.2,437.2z"/>
			<path d="M637.1,438.8C637.2,438.8,637.2,438.8,637.1,438.8c-0.5,0.9-1,1.7-1.6,2.6c-0.9,1.3-1.7,2.6-2.5,3.9
				c-0.1-0.3-0.1-0.6-0.2-1c-0.1-1.5,0.4-3,1.3-4.3c0.1,0.1,0.3,0.2,0.5,0.3c0.1-0.8,0.5-1.4,1.1-1.9
				C636.1,438.7,636.6,438.8,637.1,438.8z"/>
			<path class="st2" d="M637.2,437.2c-0.2,0.1-0.4,0.2-0.6,0.4c-0.4,0.2-0.7,0.5-1,0.8c-0.5-0.3-0.9-0.7-1.1-1.3
				c-0.5,0.7-1,1.5-1.5,2.2c-17.9-11.2-37.1-20.3-57.1-27.3c-0.2-1.2-0.3-2.4-0.5-3.7c0.1,0,0.2,0,0.3,0.1
				c14.8,4.7,29.1,10.8,42.8,18c6,3.1,11.8,6.5,17.6,10.1C636.5,436.8,636.9,437,637.2,437.2z"/>
			<path d="M636.7,477.3c0.6,0,1.1,0,1.7,0c-4.1,13.7-8.1,27.4-11.9,41.2c-6.4,23.1-12.4,46.3-18,69.6l-0.3-0.1
				c-0.4-1.8-0.8-3.7-1.1-5.5c6.1-25.1,12.7-50.1,19.7-75c2.7-9.5,5.5-19,8.3-28.4c0,0,0,0,0,0C635.6,478.4,636.2,477.9,636.7,477.3
				z"/>
			<path d="M636.4,474.5c0.8,0.6,1.1,1.8,0.3,2.7c0,0,0,0.1-0.1,0.1c-0.4,0-0.7,0-1.1,0C635.9,476.3,636.2,475.4,636.4,474.5z"/>
			<path d="M635.6,477.3c0.4,0,0.7,0,1.1,0c-0.5,0.6-1,1.1-1.6,1.7C635.3,478.4,635.4,477.8,635.6,477.3z"/>
			<path d="M636.4,474.5c-0.3,0.9-0.6,1.9-0.8,2.8c-1.2,0-2.5-0.1-3.7-0.2c0.8-0.8,1.6-1.6,2.3-2.4
				C634.9,473.9,635.8,474,636.4,474.5z"/>
			<path d="M635.6,438.4C635.7,438.4,635.7,438.5,635.6,438.4c-0.5,0.5-0.9,1.2-1,2c-0.1-0.1-0.3-0.2-0.5-0.3
				C634.6,439.5,635.1,438.9,635.6,438.4z"/>
			<path d="M635.6,477.3c-0.2,0.6-0.3,1.1-0.5,1.7c0,0,0,0,0,0c-3.7,3.7-8.1,6.6-12.9,8.5c-2.2,0.9-4.7,1.7-7.1,1
				c-0.5-0.2-1-0.4-1.4-0.7c1,0.1,2.2-0.8,1.8-2c-0.1-0.4-0.3-0.9-0.4-1.3l0.3-0.1c0.2,0.5,0.6,0.9,1.6,0.9c2,0,4.2-1.1,6-1.9
				c3.3-1.6,6.3-3.7,8.9-6.2C633.1,477.2,634.4,477.3,635.6,477.3z"/>
			<path d="M634.5,437.2c0.2,0.5,0.6,1,1.1,1.3c-0.5,0.5-1.1,1-1.5,1.7c-0.4-0.2-0.8-0.5-1.2-0.7C633.5,438.6,634,437.9,634.5,437.2
				z"/>
			<path d="M633,439.4c0.4,0.2,0.8,0.5,1.2,0.7c-0.9,1.3-1.4,2.7-1.3,4.3c0,0.4,0.1,0.7,0.2,1c0,0,0,0,0,0c-1.5,2.3-2.9,4.7-4.2,7.1
				c-3.4,6-6.4,12.2-9,18.6c-0.7-0.2-1.5-0.4-2.2-0.6l-1.3-0.1c0.6-1.3,1.1-2.7,1.7-4C622.2,456.9,627.2,447.8,633,439.4z"/>
			<path d="M632.5,665.2c0.7,1.3-0.2,2.9-1.7,3c-0.7,0-1.4,0-2.1,0c-0.9-0.9-1.8-1.7-2.8-2.4c-0.3,0.1-0.6,0.2-0.9,0.2
				c-1.5-0.2-2.9-0.5-4.2-0.9l0.1-1.1c2.2,0.2,4.4,0.3,6.7,0.3c-0.5-1-1-2-1.5-3c-7.4-15.4-12.4-31.8-16.3-48.4v0
				c0.6-2.9,1.3-5.8,2-8.7c0.8,3.7,1.7,7.3,2.6,11C618.6,632.4,624.1,649.4,632.5,665.2z"/>
			<path class="st4" d="M631.9,477.1c-2.6,2.5-5.6,4.6-8.9,6.2c-1.8,0.9-4,1.9-6,1.9c-1,0-1.4-0.4-1.6-0.9c-0.3-1,0.3-2.5,0.6-3.5
				c0.7-2,1.4-4,2.2-5.9c3,0.8,6.1,1.3,9.3,1.7C629,476.8,630.4,477,631.9,477.1z"/>
			<path d="M625.9,665.7c1,0.8,1.9,1.6,2.8,2.4c-1.3,0-2.6,0-4-0.1c-1.3-1.1-2.6-2.1-4-3.1c1.4,0.4,2.8,0.7,4.2,0.9
				C625.3,665.9,625.6,665.9,625.9,665.7z"/>
			<path class="st5" d="M626,661.2c0.5,1,1,2,1.5,3c-2.2,0-4.4-0.1-6.7-0.3c-7.2-0.6-14.2-2-21-4.2c3-15.6,6.3-31.1,9.8-46.5
				c0-0.1,0-0.2,0.1-0.3C613.7,629.4,618.6,645.8,626,661.2z"/>
			<path class="st5" d="M633,439.4c-5.8,8.5-10.8,17.6-15,27c-0.6,1.3-1.2,2.7-1.7,4c-0.5,1.4-1.1,2.7-1.6,4.1
				c-0.6,1.5-1.3,3.1-1.8,4.7c-3.4-6.6-8.6-12.4-14.6-16.8c0,0,0,0,0,0c-0.1,0-0.1-0.1-0.2-0.1c0,0,0,0-0.1,0
				c-1.3-0.9-2.5-1.8-3.9-2.5c-0.2-0.1-0.3-0.2-0.5-0.2c-1.7-1.1-3.3-2.3-4.9-3.6c-2.5-2-4.8-4.2-7.1-6.3c-0.2-0.9-0.3-1.7-0.4-2.6
				c-1.9-11.6-3.7-23.2-5.3-34.8C595.9,419.1,615.1,428.1,633,439.4z"/>
			<path d="M620.8,665c1.4,1,2.7,2,4,3.1c-8.7-0.4-17.3-1.9-25.6-4.5c0.1-0.8,0.3-1.6,0.4-2.4c0.1-0.5,0.2-1,0.3-1.5
				c6.8,2.2,13.9,3.6,21,4.2L620.8,665z"/>
			<path d="M617.6,470.4c0.7,0.2,1.5,0.4,2.2,0.6c-0.5,1.3-1.1,2.6-1.6,3.9c-0.4-0.1-0.7-0.2-1.1-0.3
				C618.4,473.7,618.5,471.7,617.6,470.4z"/>
			<path d="M617.2,474.6c0.4,0.1,0.7,0.2,1.1,0.3c-0.8,2-1.5,3.9-2.2,5.9c-0.3,1-0.9,2.5-0.6,3.5l-0.3,0.1c-0.6-1.8-1.4-3.6-2.3-5.3
				c0.6-1.6,1.2-3.2,1.8-4.7c0.5-1.4,1.1-2.7,1.6-4.1l1.3,0.1C618.5,471.7,618.4,473.7,617.2,474.6z"/>
			<path d="M615.6,485.7c0.4,1.2-0.8,2.1-1.8,2h0c-1.6-1.2-2.1-3.3-1.8-5.3c0.2-1.1,0.5-2.2,0.9-3.3c0.9,1.7,1.6,3.5,2.3,5.3
				C615.3,484.8,615.4,485.3,615.6,485.7z"/>
			<path d="M613.7,487.8c-0.4,0-0.8-0.3-1.1-0.8c-2.2-5-4.7-9.7-8.2-13.8c-1.8-2.1-3.7-4.1-5.8-5.8c2.1,1.1,4.3,2.2,6.5,3.2
				c0-0.2,0-0.5,0-0.8c0,0,0,0,0,0c0,0.1,0,0.2,0,0.3c0-0.1-0.1-0.3-0.3-0.5c0,0,0,0-0.1-0.1c-1.3-1.1-2.6-2.2-3.2-3.7
				c-0.1-0.2-0.1-0.4-0.2-0.5c-0.1,0-0.1,0-0.2,0c-1.9,0-2.9-1.4-2.9-2.9c6,4.4,11.2,10.2,14.6,16.8c-0.4,1.1-0.7,2.2-0.9,3.3
				C611.6,484.5,612.1,486.6,613.7,487.8z"/>
			<path d="M611.3,602.3c0.1,0.6,0.3,1.2,0.4,1.8c-0.7,2.9-1.4,5.8-2,8.7c-0.2-0.8-0.4-1.6-0.6-2.4c0,0,0,0,0-0.1
				c1.1-0.8,1.3-2.4,0.9-3.6c0.4-0.5,0.5-1.2,0.5-1.8c0.3-0.6,0.4-1.3,0.3-1.9C611,602.8,611.2,602.6,611.3,602.3z"/>
			<path d="M609.7,612.8L609.7,612.8c0,0.1,0,0.2-0.1,0.3c-3.5,15.5-6.8,31-9.8,46.5c-0.4-0.1-0.8-0.2-1.2-0.4l-0.8-0.2
				c1.1-6,2.3-11.9,3.6-17.9c2.1-10.4,4.4-20.8,6.8-31.1l1,0.2c0,0,0,0,0,0.1C609.3,611.2,609.5,612,609.7,612.8z"/>
			<path d="M608.2,587.9l0.3,0.1c-1.1,4.4-2.1,8.9-3.1,13.3c-4.3,18.6-8.4,37.2-12.2,55.8l-0.6-0.1c-0.7-0.3-1.3-0.6-2-0.9
				c4.4-21.7,9.2-43.3,14.3-64.8c0.3,1.3,0.5,2.6,0.8,3.9c0.1-0.2,0.2-0.3,0.4-0.4c-0.5-1.3-0.2-3,1-3.8c-0.1-1,0.1-2,0.8-2.7
				C608,588.2,608.1,588,608.2,587.9z"/>
			<path d="M607.1,582.4c0.4,1.8,0.8,3.7,1.1,5.5c-0.1,0.1-0.2,0.3-0.3,0.4c-0.7,0.7-1,1.7-0.8,2.7c-1.2,0.8-1.5,2.5-1,3.8
				c-0.1,0.1-0.3,0.3-0.4,0.4c-0.3-1.3-0.5-2.6-0.8-3.9c0.1-0.4,0.2-0.8,0.3-1.2C605.8,587.6,606.4,585,607.1,582.4z"/>
			<path d="M607.1,582.4c-0.6,2.6-1.3,5.2-1.9,7.8c-0.1,0.4-0.2,0.8-0.3,1.2c-2.5-12-4.9-24-7.3-36c-0.6-2.8-1.1-5.5-1.7-8.3
				c1.1-0.8,2.2-1.6,3.2-2.4l0.3-0.1c1.1,5.5,2.2,11.1,3.4,16.6C604.2,568.2,605.6,575.3,607.1,582.4z"/>
			<path d="M605.1,469.7c0,0.3,0,0.5,0,0.8c-2.2-1-4.4-2-6.5-3.2c-2-1.7-4.2-3.2-6.4-4.6c-1.9-1.1-0.5-3.9,1.4-3.4
				c1,0.7,2,1.3,3,1.9c0.5,0.3,0.9,0.5,1.4,0.8c0,0,0,0,0.1,0c0.1,0,0.2,0.1,0.2,0.2c0,1.5,1,2.9,2.9,2.9c0.1,0,0.1,0,0.2,0
				c0.1,0.2,0.1,0.3,0.2,0.5c0.7,1.5,1.9,2.6,3.2,3.7c0,0,0,0.1,0.1,0.1c0.2,0.2,0.3,0.4,0.3,0.5
				C605.1,469.9,605.1,469.8,605.1,469.7C605.1,469.7,605.1,469.7,605.1,469.7z"/>
			<path d="M599.8,659.6c-0.1,0.5-0.2,1-0.3,1.5c-0.2,0.8-0.3,1.6-0.4,2.4c-0.4-0.1-0.7-0.2-1-0.3c1.1-0.9,1.3-2.7,0.6-3.9
				C599,659.4,599.4,659.5,599.8,659.6z"/>
			<path d="M599.4,544.5l-0.3,0.1c-0.8-0.5-1.3-1.3-1.3-2.4c0-0.5-0.1-1.1-0.2-1.6c-0.9,0.8-1.7,1.5-2.6,2.2
				c-0.7-3.4-1.4-6.8-2-10.2c0.8-0.4,1.7-0.8,2.5-1.2c0.1-0.8,0.2-1.6,0.3-2.4l0.3-0.1C597.3,534.1,598.3,539.3,599.4,544.5z"/>
			<path d="M598.1,663.2c0.3,0.1,0.7,0.2,1,0.3c-1,6-1.9,12.5-5.6,17.3c-1.5,1.9-3.5,3.4-5.8,4.2c0,0,0-0.1,0-0.1
				c0.1-0.8,0.3-1.5,0.4-2.3l0,0c0.2-0.1,0.5-0.3,0.7-0.4c6.1-3.6,6.8-12.1,8-18.3c0.3-1.6,0.6-3.3,0.9-4.9l0.8,0.2
				C599.4,660.5,599.2,662.3,598.1,663.2z"/>
			<path class="st5" d="M597.6,555.3c2.4,12,4.8,24,7.3,36c-5.1,21.5-9.9,43.1-14.3,64.8c-3.7-1.6-7.3-3.4-10.7-5.5l0,0
				c-6-21.4-10.2-43.2-12.5-65.3c-0.9-8.3-1.5-16.7-1.9-25.1c3.3-0.7,6.5-1.6,9.7-2.7c5.9-2,11.7-4.6,17-8c1.3-0.8,2.6-1.7,3.8-2.6
				C596.5,549.8,597,552.6,597.6,555.3z"/>
			<path d="M598.2,462.3C598.2,462.3,598.2,462.3,598.2,462.3c-0.1,0-0.1-0.1-0.2-0.1C598.1,462.2,598.2,462.2,598.2,462.3z"/>
			<path d="M597.8,542.2c0,1.1,0.5,1.9,1.3,2.4c-1,0.9-2.1,1.7-3.2,2.4c-0.3-1.4-0.6-2.8-0.9-4.3c0.9-0.7,1.8-1.4,2.6-2.2
				C597.7,541.1,597.8,541.7,597.8,542.2z"/>
			<path d="M598,462.1c-0.5-0.3-0.9-0.5-1.4-0.8c-1-0.6-2-1.3-3-1.9c0.2,0,0.3,0.1,0.5,0.2C595.4,460.3,596.7,461.2,598,462.1z"/>
			<path d="M596.2,528.8l-0.3,0.1c-0.2-0.6-0.5-1.2-0.8-1.8c-0.9,0.5-1.9,1-2.9,1.4c-2-10.3-4-20.7-6-31
				c-2.9-15.4-5.6-30.8-8.1-46.2c0.1,0.2,0.2,0.4,0.4,0.6c1.3,1.5,2.7,3,4.2,4.4c2.7,15.9,5.6,31.8,8.6,47.6
				C593,512.3,594.6,520.6,596.2,528.8z"/>
			<path d="M595,542.8c0.3,1.4,0.6,2.8,0.9,4.3c-1.3,0.9-2.5,1.8-3.8,2.6c-5.3,3.3-11.1,6-17,8c-3.2,1.1-6.4,2-9.7,2.7
				c0-0.1,0-0.3,0-0.5c-0.1-1.1-1.1-1.6-1.9-1.5l-0.3-1.5c4.9-1.1,9.8-2.5,14.5-4.3c4.9-1.9,9.6-4.3,14-7.3
				C592.8,544.5,594,543.6,595,542.8z"/>
			<path d="M595.9,528.9c-0.1,0.8-0.2,1.6-0.3,2.4c-0.8,0.4-1.7,0.8-2.5,1.2c-0.3-1.3-0.5-2.7-0.8-4c1-0.5,1.9-0.9,2.9-1.4
				C595.4,527.7,595.7,528.3,595.9,528.9z"/>
			<path d="M598.7,467.3c-2-1-3.9-2.2-5.7-3.4c-3.5-2.3-7-4.8-10.2-7.6c-0.4-2.3-0.8-4.6-1.1-6.9c2.4,2.1,4.7,4.3,7.1,6.3
				c1.6,1.3,3.2,2.5,4.9,3.6c-1.8-0.5-3.3,2.3-1.4,3.4C594.5,464.1,596.6,465.6,598.7,467.3z"/>
			<path class="st0" d="M593,532.6c0.7,3.4,1.4,6.8,2,10.2c-1.1,0.9-2.2,1.7-3.4,2.5c-4.4,2.9-9.1,5.4-14,7.3
				c-4.7,1.9-9.6,3.3-14.5,4.3c-6.7,1.4-13.5,2.2-20.2,2.6c-8.7,0.5-17.4,0.5-26.2,0.3c-3.6-0.1-7.1-0.3-10.7-0.5
				c-11.6-0.7-23.3-2-34.6-5c-6.2-1.6-12.3-3.8-18.2-6.5c-3.9-1.8-8.3-3.9-10.9-7.4c0.9-3.5,1.8-7.1,2.7-10.7
				c5.8,3.6,12.3,6.1,18.8,7.9c11,3.2,22.5,5,33.9,6.5c23.8,3.1,48.2,3.1,71.6-3C577.4,539.1,585.4,536.2,593,532.6z"/>
			<path d="M592.6,657l0.6,0.1c-1.7,8.5-3.4,17-5,25.6l0,0c-0.8,0.4-1.6,0.7-2.5,0.8c0,0.2,0,0.3,0.1,0.5c0,0.2,0,0.4-0.1,0.6
				c0.3,0.2,0.5,0.5,0.7,0.8c0.5-0.1,0.9-0.2,1.3-0.4c-0.4,1.7-3,0.9-2.7-0.9c0.5-2.6,1-5.2,1.5-7.8c0.6-0.4,1-1.4,0.8-2.1
				c-0.1-0.2-0.2-0.5-0.2-0.7c0.9-4.5,1.8-9.1,2.7-13.6c0.5,0.2,1,0.4,1.5,0.6C590.8,659.3,591.3,657.7,592.6,657z"/>
			<path d="M592.2,528.6c0.3,1.3,0.5,2.7,0.8,4c-7.6,3.6-15.6,6.5-23.7,8.6c-23.3,6-47.8,6.1-71.6,3c-11.4-1.5-22.8-3.4-33.9-6.5
				c-6.5-1.9-13-4.3-18.8-7.9c0.3-1.2,0.6-2.5,0.9-3.7c7,4.5,15,7.2,23.2,9.2c11.2,2.7,22.7,4.6,34.1,5.8c12,1.3,24.1,1.8,36.2,1
				C557.6,540.8,575.8,536.6,592.2,528.6z"/>
			<path d="M591.3,660.7c-0.5-0.2-1-0.4-1.5-0.6c0.3-1.3,0.5-2.6,0.8-4c0.7,0.3,1.3,0.6,2,0.9C591.3,657.7,590.8,659.3,591.3,660.7z
				"/>
			<path d="M590.6,656.1c-0.3,1.3-0.5,2.6-0.8,4c-2.9-1.2-5.6-2.5-8.4-4v0c-0.5-1.8-1.1-3.6-1.6-5.4
				C583.3,652.7,586.9,654.5,590.6,656.1z"/>
			<path class="st3" d="M589.8,660.1c-0.9,4.5-1.8,9.1-2.7,13.6c-2-5.8-3.9-11.7-5.7-17.6C584.1,657.5,586.9,658.9,589.8,660.1z"/>
			<path d="M588.2,682.7c-0.1,0.8-0.3,1.5-0.4,2.3c0,0,0,0.1,0,0.1c-0.4,0.2-0.9,0.3-1.3,0.4c-0.2-0.3-0.4-0.6-0.7-0.8
				c0-0.2,0.1-0.4,0.1-0.6c0-0.2,0-0.3-0.1-0.5C586.5,683.4,587.4,683.1,588.2,682.7z"/>
			<path class="st5" d="M586.3,497.5c1.9,10.4,3.9,20.7,6,31c-16.4,8-34.6,12.2-52.8,13.4c-12,0.8-24.2,0.3-36.2-1
				c-11.4-1.2-22.9-3.1-34.1-5.8c-8.2-2-16.1-4.8-23.2-9.2c1.5-6.3,2.9-12.7,4.2-19.1c1.4-6.8,2.6-13.6,3.6-20.5
				c1.8-11.6,3.3-23.2,4.5-34.8c1.5-14.5,2.9-28.9,5.3-43.3c0,0,0,0,0,0c0.1-0.2,0.1-0.4,0.1-0.6c0.7-4,1.4-7.9,2.3-11.9
				c0.3-1.5,0.7-3,1-4.5c13,5.2,27,8.2,41,8.7c1.4,0,2.7,0.1,4.1,0.1c0,4.8,0.1,9.6,0.2,14.4c1.1,0.1,2.4,0.2,3.5,0.5
				c-0.1-5-0.2-9.9-0.3-14.9c12.9-0.3,25.8-2.6,37.9-6.8c4-1.4,8-3,11.9-4.9c1.4-0.7,2.8-1.5,4-2.6c0.9,8.3,1.9,16.5,2.9,24.8
				c1.3,9.8,2.7,19.6,4.2,29.3c0.6,3.6,1.1,7.1,1.7,10.7c0,0.3,0,0.6,0.1,0.8C580.7,466.8,583.4,482.2,586.3,497.5z"/>
			<path d="M587.3,674.4c0.3,0.7-0.1,1.7-0.8,2.1c0.2-0.9,0.3-1.8,0.5-2.7c0,0,0,0,0-0.1C587.1,673.9,587.2,674.1,587.3,674.4z"/>
			<path d="M587.1,673.7C587.1,673.7,587,673.7,587.1,673.7c-0.2,1-0.4,1.9-0.5,2.8c-0.2,0.1-0.4,0.2-0.5,0.2
				c-4.5,0.7-9,1.1-13.5,1.3c-0.4-0.8-0.8-1.6-1.2-2.4c0,0-0.1-0.1-0.1-0.2h-2.9v-1.2c4.9,0,9.8-0.3,14.7-0.9
				c-2.1-6.2-4.1-12.4-5.9-18.7l1.1-0.3c1.1,0.6,2.1,1.2,3.2,1.8v0C583.2,662,585,667.9,587.1,673.7z"/>
			<path d="M581.6,449.4c0.4,2.3,0.8,4.6,1.1,6.9c-1.5-1.4-2.9-2.8-4.2-4.4c-0.2-0.2-0.3-0.4-0.4-0.6c0-0.3-0.1-0.6-0.1-0.8
				c0.1-1.5,1.8-2.6,3.3-1.3C581.4,449.3,581.5,449.4,581.6,449.4z"/>
			<path d="M581.2,446.9c0.1,0.9,0.3,1.7,0.4,2.6c-0.1-0.1-0.2-0.2-0.3-0.3c-1.4-1.3-3.2-0.2-3.3,1.3c-0.6-3.6-1.1-7.1-1.7-10.7
				c-1.5-9.7-2.9-19.5-4.2-29.3l1.6-0.2c0.1,0.6,0.4,1.1,1.1,1.4c0.3,0.1,0.7,0.2,1,0.4C577.5,423.7,579.3,435.3,581.2,446.9z"/>
			<path d="M579.8,650.7c0.5,1.8,1,3.6,1.6,5.4c-1.1-0.6-2.1-1.2-3.2-1.8c0.6-0.9,0.6-2,0.1-3.1c-0.3-0.5-0.6-0.9-1-1.3
				c0-0.1,0-0.3-0.1-0.4c0-0.1-0.1-0.2-0.1-0.2c0.3,0,0.6,0.1,0.9,0.3C578.7,650,579.3,650.3,579.8,650.7L579.8,650.7z"/>
			<path d="M579.8,650.6c-0.6-0.3-1.2-0.7-1.7-1c-0.3-0.2-0.6-0.3-0.9-0.3l-1.5,0.4c-7.8-28.9-12.5-58.8-13.4-88.8
				c1-0.2,2.1-0.4,3.1-0.6c0.4,8.4,1,16.7,1.9,25.1C569.7,607.4,573.8,629.3,579.8,650.6z"/>
			<path d="M578.3,651.2c0.5,1,0.5,2.2-0.1,3.1l-1.1,0.3c-0.4-1.4-0.8-2.7-1.2-4.1c-0.1-0.3-0.2-0.5-0.2-0.8l1.5-0.4
				c0,0.1,0.1,0.2,0.1,0.2c0,0.1,0,0.3,0.1,0.4C577.7,650.3,578,650.7,578.3,651.2z"/>
			<path d="M578,450.5c0,0.3,0.1,0.6,0.1,0.8C578,451,578,450.8,578,450.5z"/>
			<path class="st5" d="M577.1,654.6c1.8,6.3,3.8,12.5,5.9,18.7c-4.9,0.6-9.8,0.9-14.7,0.9c-10.5,0-21-1.4-31.1-4.1
				c-2.1-0.6-4.2-1.2-6.3-1.9c-2.3-0.7-4.4-1.6-6.7-2.1c-0.4-0.1-0.8,0-1.1,0.1c0,0-0.1,0-0.1,0c0.6-0.3,1-0.8,1-1.6
				c-0.8-33.7-2.2-67.3-3.3-101c5.8,0.1,11.6,0.1,17.3-0.1c8.2-0.3,16.4-0.9,24.4-2.5c0.9,29.9,5.5,59.9,13.4,88.8
				c0.1,0.3,0.2,0.5,0.2,0.8C576.3,651.9,576.7,653.2,577.1,654.6z"/>
			<path d="M575.9,412.1c-0.3-0.1-0.7-0.3-1-0.4c-0.7-0.3-1.1-0.8-1.1-1.4c-0.1-1,0.5-2.1,1.7-1.9
				C575.6,409.6,575.8,410.8,575.9,412.1z"/>
			<path d="M575.4,408.4c-1.1-0.1-1.8,0.9-1.7,1.9l-1.6,0.2c-1.1-8.3-2.1-16.5-2.9-24.8v0c1.3-1.2,2.3-2.7,2.6-4.6
				c0.1,0.2,0.2,0.4,0.2,0.7c0.3,2.4,0.6,4.8,0.9,7.2C573.7,395.5,574.5,402,575.4,408.4z"/>
			<path d="M572.4,678c-0.2,0-0.4,0-0.6,0c-1,0-1.9,0.1-2.9,0.1c-0.3-0.5-0.5-1-0.8-1.6c-0.2-0.4-0.3-0.7-0.5-1.1h0.6h2.9
				c0,0.1,0,0.1,0.1,0.2C571.6,676.4,572,677.2,572.4,678z"/>
			<path d="M568.8,380.5c0.1-1.9,3.1-1.9,3,0c0,0.2,0,0.5-0.1,0.7c-0.7-1.2-2.7-1.1-3,0.2l-0.1,0C568.8,381,568.8,380.8,568.8,380.5
				z"/>
			<path d="M571.8,381.1L571.8,381.1c-0.3,1.9-1.2,3.4-2.6,4.6c-0.1-1.3-0.3-2.6-0.4-3.9c0-0.2,0-0.4,0-0.5
				C569.1,380,571.1,380,571.8,381.1z"/>
			<path d="M569.2,385.7L569.2,385.7c-1.2,1.1-2.6,1.9-4,2.6c-3.8,1.9-7.8,3.5-11.9,4.9c-12.2,4.3-25,6.5-37.9,6.8
				c0-0.6,0-1.3,0-1.9c0-0.5-0.1-0.8-0.4-1.1c5.5-0.1,11-0.6,16.5-1.5c7.1-1.1,14.2-2.9,21-5.3c3.5-1.2,6.9-2.6,10.3-4.2
				c2.1-1,5.2-2.4,5.9-4.9l0.1,0c0,0.1,0,0.3,0,0.5C568.9,383.1,569.1,384.4,569.2,385.7z"/>
			<path d="M568.2,676.5c0.2,0.5,0.5,1,0.8,1.6c-7.4,0-14.8-0.6-22.1-1.8c-4.1-0.7-8.2-1.6-12.2-2.8c-3.8-1.1-7.8-2.1-11.3-4
				c0.6-0.4,0.9-1.1,0.7-2c-0.1-0.5-0.6-1-1.1-1.2c0.3-0.2,0.7-0.2,1.1-0.1c2.3,0.5,4.5,1.4,6.7,2.1c2.1,0.7,4.2,1.3,6.3,1.9
				c10.1,2.7,20.6,4.1,31.1,4.1v1.2h-0.6C567.8,675.7,568,676.1,568.2,676.5z"/>
			<path d="M565.4,559.8c0,0.2,0,0.3,0,0.5c-1,0.2-2,0.5-3.1,0.6c0-0.4,0-0.7,0-1.1c0-0.9,0.5-1.4,1.2-1.5
				C564.3,558.2,565.3,558.7,565.4,559.8z"/>
			<path d="M563.2,556.8l0.3,1.5c-0.7,0.1-1.2,0.6-1.2,1.5c0,0.4,0,0.7,0,1.1c-8,1.6-16.3,2.3-24.4,2.5c-5.8,0.2-11.5,0.2-17.3,0.1
				c0-0.8,0-1.7-0.1-2.5c-0.3,0.2-0.6,0.4-1,0.5c-1.1,0.3-2,0-2.8-0.7l0-1.2c8.7,0.3,17.5,0.2,26.2-0.3
				C549.7,559,556.5,558.3,563.2,556.8z"/>
			<path d="M524,667.5c0.2,0.8-0.1,1.5-0.7,2c-0.2-0.1-0.3-0.2-0.5-0.3c-1.3-0.7-0.9-2.4,0.1-2.9C523.5,666.5,523.9,667,524,667.5z"
				/>
			<path d="M523.8,664.6c0,0.8-0.4,1.4-1,1.6c0,0,0,0,0,0c-0.4-0.1-0.7-0.2-1.1,0c-0.1,0-0.2,0.1-0.3,0.1c0,0,0,0,0,0
				c-0.7-0.2-1.3-0.8-1.4-1.7c-0.8-19.5-1.3-39-1.9-58.5c-0.5-14.2-0.9-28.4-1.4-42.6c1.3,0,2.5,0.1,3.8,0.1
				C521.7,597.3,523,630.9,523.8,664.6z"/>
			<path d="M522.8,669.2c0.1,0.1,0.3,0.2,0.5,0.3c-0.2,0.1-0.3,0.2-0.5,0.3c-5.1,2.1-10.4,3.6-15.9,4.7c-7.9,1.6-15.9,2.3-24,2.4
				c0.8-1,1.6-2,2.4-3c-0.4-0.1-0.8-0.2-1.2-0.2c-0.1,0-0.2,0-0.3,0c-0.2,0.1-0.4,0.1-0.6,0.1c-0.5,0-0.9-0.1-1.4-0.1v-0.3
				c13.5-0.1,27-1.8,39.7-6.9c0,0,0,0,0,0c0.5,0.1,1,0.1,1.4-0.1c0,0,0,0,0,0c0,0,0,0,0.1,0C521.9,666.8,521.5,668.4,522.8,669.2z"
				/>
			<path d="M521.8,666.2c0.4-0.1,0.7-0.1,1.1,0c-0.4,0.2-0.9,0.2-1.4,0.1C521.6,666.3,521.7,666.2,521.8,666.2z"/>
			<path d="M520.5,561.1c0,0.8,0.1,1.7,0.1,2.5c-1.3,0-2.5-0.1-3.8-0.1c0-0.9,0-1.7-0.1-2.6c0.7,0.7,1.7,1,2.8,0.7
				C519.8,561.5,520.2,561.3,520.5,561.1z"/>
			<path class="st5" d="M520.1,664.6c0,1,0.6,1.5,1.4,1.7c-12.7,5-26.1,6.7-39.7,6.9c-5.9,0.1-11.8-0.2-17.7-0.5
				c-4.8-0.3-9.6-0.7-14.4-1.1c1.1-3.5,2.1-6.9,3.1-10.4c7.2-25.2,13-50.7,17.3-76.5c1.4-8.4,2.6-16.8,3.7-25.2c0-0.3,0-0.6-0.2-0.8
				c8.8,2.1,17.8,3.3,26.7,4.1c5.5,0.4,11,0.8,16.5,0.9c0.5,14.2,0.9,28.4,1.4,42.6C518.8,625.6,519.3,645.1,520.1,664.6z"/>
			<path d="M516.7,560.9c0,0.9,0.1,1.7,0.1,2.6c-5.5-0.2-11-0.5-16.5-0.9c-9-0.7-18-1.9-26.7-4.1c-0.4-0.7-1.5-0.9-2.2-0.5
				c-2.3-0.6-4.6-1.3-6.9-2c-5.7-1.8-11.3-4.1-16.5-6.9c-2.3-1.2-4.6-2.7-6.5-4.6c0.4-1.4,0.7-2.8,1.1-4.1c2.6,3.5,7,5.6,10.9,7.4
				c5.8,2.7,12,4.8,18.2,6.5c11.3,3,22.9,4.3,34.6,5c3.6,0.2,7.1,0.4,10.7,0.5L516.7,560.9z"/>
			<path class="st2" d="M515.4,400.1c0,5,0.1,9.9,0.3,14.9c-1.1-0.3-2.4-0.4-3.5-0.5c-0.1-4.8-0.2-9.6-0.2-14.4
				C513.1,400.1,514.3,400.1,515.4,400.1z"/>
			<path d="M515.4,398.2c0,0.6,0,1.3,0,1.9c-1.1,0-2.3,0-3.4,0c0-0.6,0-1.3,0-1.9c0-0.4,0.1-0.8,0.4-1.1c0.9,0,1.8,0,2.7,0
				C515.3,397.4,515.4,397.8,515.4,398.2z"/>
			<path class="st2" d="M515,397.1c-0.9,0-1.8,0-2.7,0C513,396.3,514.4,396.3,515,397.1z"/>
			<path d="M512.3,397.1c-0.2,0.3-0.4,0.6-0.4,1.1c0,0.6,0,1.3,0,1.9c-1.4,0-2.7,0-4.1-0.1c-14.1-0.5-28-3.4-41-8.7
				c0.2-0.7,0.3-1.5,0.5-2.2c0.1-0.3,0.1-0.5,0-0.8c6.7,2.7,13.6,4.8,20.6,6.3C496,396.3,504.2,397.1,512.3,397.1z"/>
			<path d="M484.1,673.5c0.4,0.1,0.8,0.1,1.2,0.2c-0.8,1-1.6,2-2.4,3c-1.3,0-2.6,0-3.9,0c0.9-1.1,1.9-2.2,2.8-3.3
				c0.5,0.1,0.9,0.1,1.4,0.1c0.2,0,0.4,0,0.6-0.1C483.9,673.5,484,673.5,484.1,673.5z"/>
			<path d="M479,676.8c1.3,0,2.6,0,3.9,0c-7,8.5-15.6,15.7-25.2,21.2c-9.5,5.4-19.9,9.1-30.7,10.8c-5.4,0.8-10.8,1.3-16.2,1.1
				c-4.8-0.2-10.3-1.1-13.4-5.2c-3.5-4.6-2.2-10.8-0.1-15.7c2.1-4.8,4.9-9.3,8.4-13.3c2.3-2.7,5-5.1,7.8-7.3c1.6,0,3.3-0.1,4.9-0.2
				c-4.8,3-9.2,6.9-12.7,11.5c-4.8,6.2-13.7,21.2-2.8,26c4.4,1.9,9.7,1.6,14.3,1.4c5.1-0.3,10.1-1,15-2.2
				C450.3,700.6,467,690.7,479,676.8L479,676.8z"/>
			<path d="M481.8,673.2v0.3c-0.9,1.1-1.8,2.3-2.8,3.3h0c-10.6-0.1-21.2-1-31.7-1.9c-1.1-0.1-2.1-1.1-1.7-2.3c1-3.2,1.9-6.4,2.9-9.6
				c0.9-0.3,1.8-0.5,2.7-0.8c0.7-0.2,1.1-0.7,1.3-1.3l0.3,0.1c-1,3.5-2,6.9-3.1,10.4c4.8,0.4,9.6,0.8,14.4,1.1
				C470,673,475.9,673.2,481.8,673.2z"/>
			<path d="M473.5,558.5c0.2,0.2,0.2,0.5,0.2,0.8c-1.1,8.4-2.3,16.8-3.7,25.2c-4.3,25.8-10,51.4-17.3,76.5l-0.3-0.1
				c0.4-1.3-0.6-3-2.3-2.5c-0.1,0-0.3,0.1-0.4,0.1c1-3.5,2-7,2.9-10.5c7.9-29.3,13.8-59.1,17.9-89.1c0.1-0.5,0.3-0.8,0.7-1
				C472.1,558.2,472.8,558.4,473.5,558.5z"/>
			<path d="M473.5,558.5c-0.7-0.2-1.5-0.3-2.2-0.5C472,557.6,473.1,557.9,473.5,558.5z"/>
			<path class="st5" d="M471.3,558c-0.3,0.2-0.6,0.5-0.7,1c-4.1,30.1-10,59.8-17.9,89.1c-1,3.5-1.9,7-2.9,10.5c0,0,0,0,0,0
				c-10.1,3.1-20.4,5-30.8,5.6c-5.6,0.4-11.2,0.4-16.8,0.1c6.1-16.8,12.1-33.5,17.9-50.4c6-17.6,11.8-35.4,16.9-53.3
				c1.5-5.4,3.1-10.8,4.5-16.3c1.9,1.9,4.3,3.4,6.5,4.6c5.3,2.8,10.8,5.1,16.5,6.9C466.7,556.7,469,557.4,471.3,558z"/>
			<path d="M467.4,388.4c0.1,0.2,0.1,0.5,0,0.8c-0.2,0.7-0.4,1.5-0.5,2.2c-1-0.4-2-0.8-3-1.3c0.1-0.6,0.3-1.2,0.5-1.8
				c0.1-0.5,0.4-0.8,0.7-0.9c0,0,0,0,0,0C465.8,387.7,466.6,388,467.4,388.4L467.4,388.4z"/>
			<path d="M467.4,388.4c-0.8-0.3-1.6-0.7-2.4-1C465.9,386.9,467.2,387.3,467.4,388.4z"/>
			<path d="M466.9,391.4c-0.4,1.5-0.7,3-1,4.5c-0.9,3.9-1.6,7.9-2.3,11.9c-0.1-1.1-1.7-2-2.9-1c-0.1,0.1-0.3,0.2-0.4,0.3
				c1-5.7,2.2-11.3,3.6-16.9C464.9,390.5,465.9,391,466.9,391.4z"/>
			<path d="M464.5,387.1c0.2,0.1,0.3,0.1,0.5,0.2c-0.3,0.2-0.6,0.5-0.7,0.9c-0.2,0.6-0.3,1.2-0.5,1.8c-0.3-0.1-0.6-0.2-0.9-0.4
				C461.3,389,462.8,386.4,464.5,387.1z"/>
			<path d="M463.6,407.8c0,0.2,0,0.4-0.1,0.6C463.5,408.2,463.6,408,463.6,407.8z"/>
			<path d="M463.6,407.8c0,0.2-0.1,0.4-0.1,0.6c0,0,0,0,0,0c-0.1,0.2-0.2,0.3-0.4,0.5c-1.2,1.1-2.4,2.2-3.7,3.3
				c0.3-1.7,0.5-3.4,0.9-5.1c0.1-0.1,0.3-0.2,0.4-0.3C461.9,405.7,463.5,406.6,463.6,407.8z"/>
			<path d="M463.1,408.9c0.2-0.2,0.3-0.3,0.4-0.5c-2.4,14.3-3.8,28.8-5.3,43.3c-1.2,11.7-2.6,23.3-4.5,34.8l-0.1,0
				c0.2-1.7-2.1-2.9-3.3-1.6c2.1-13.7,3.7-27.4,5.2-41.2c1.1-10.5,2.3-21.1,3.9-31.5C460.7,411.1,461.9,410,463.1,408.9z"/>
			<path class="st3" d="M479,676.8c-12.1,13.9-28.7,23.8-46.6,28c-4.9,1.2-10,1.9-15,2.2c-4.6,0.3-10,0.6-14.3-1.4
				c-10.9-4.8-2-19.8,2.8-26c3.6-4.6,7.9-8.4,12.7-11.5c0,0,0,0,0,0c10.1-0.6,20.2-2.4,29.9-5.2c-0.9,3.2-1.9,6.4-2.9,9.6
				c-0.4,1.2,0.6,2.2,1.7,2.3C457.8,675.8,468.5,676.7,479,676.8z"/>
			<path d="M460.3,407c-0.3,1.7-0.6,3.4-0.9,5.1c-5.3,4.8-10.7,9.5-15.9,14.4c0.2-0.2,0.4-0.4,0.5-0.6c1.3-1.5-0.8-3.7-2.3-2.3
				c-5.7,5.4-11.3,11-17.1,16.3C435.7,428.3,448,417.5,460.3,407z"/>
			<path class="st5" d="M459.5,412.1c-1.7,10.5-2.8,21-3.9,31.5c-1.5,13.8-3.1,27.5-5.2,41.2c-0.1,0.1-0.2,0.2-0.3,0.3
				c-1.1,1.8-2.3,3.5-3.7,5c-11.6-9-23.2-17.9-34.8-26.9c-1.5-1.2-3-2.4-4.6-3.6c6.3-4.9,12.4-10,18.3-15.3c0.8-0.7,1.6-1.4,2.4-2.2
				c0,0,0,0,0.1,0c0.1-0.1,0.3-0.3,0.4-0.4c5.4-4.9,10.7-9.9,15.5-15.3C448.8,421.7,454.1,416.9,459.5,412.1z"/>
			<path d="M453.6,486.5l0.1,0c-1.1,6.8-2.3,13.7-3.6,20.5c-1.3,6.4-2.7,12.7-4.2,19.1c-0.3-0.2-0.6-0.4-0.9-0.6
				c0,1.2-0.9,2.4-2.1,2.9l-1.4-0.3c2.3-9.6,4.4-19.2,6.2-28.8c0.2-0.9,0.3-1.7,0.5-2.5c0.8,0.4,1.7,0.5,2.4-0.2
				c0.7-0.7,0.8-2.1,0-2.8c-0.5-0.4-0.9-0.7-1.3-1c1.5-1.6,2.8-3.5,4-5.4C453.5,486.9,453.6,486.7,453.6,486.5z"/>
			<path d="M450.3,484.9c1.2-1.3,3.6-0.1,3.3,1.6c0,0.2-0.1,0.5-0.3,0.7c-1.1,2-2.5,3.8-4,5.4c-0.1-0.1-0.2-0.1-0.3-0.2
				C449.5,489.9,449.9,487.4,450.3,484.9z"/>
			<path d="M450.2,658.5c1.7-0.5,2.7,1.2,2.3,2.5c-0.1,0.5-0.6,1-1.3,1.3c-0.9,0.3-1.8,0.5-2.7,0.8c0.4-1.5,0.9-2.9,1.3-4.4
				c0,0,0,0,0,0C449.9,658.6,450,658.5,450.2,658.5z"/>
			<path d="M450.7,493.6c0.8,0.6,0.7,2.1,0,2.8c-0.7,0.7-1.6,0.7-2.4,0.2c0.2-1.2,0.4-2.4,0.6-3.6c0.1-0.1,0.3-0.3,0.4-0.5
				C449.8,492.9,450.3,493.3,450.7,493.6z"/>
			<path d="M450.1,485.2c0.1-0.1,0.2-0.3,0.3-0.3c-0.4,2.5-0.8,5-1.2,7.5c-0.9-0.7-1.8-1.4-2.8-2.1C447.8,488.7,449,487,450.1,485.2
				z"/>
			<path d="M449.1,492.4c0.1,0.1,0.2,0.2,0.3,0.2c-0.1,0.2-0.3,0.3-0.4,0.5C449,492.8,449,492.6,449.1,492.4z"/>
			<path d="M449.8,658.6c-0.4,1.5-0.9,2.9-1.3,4.4c-9.8,2.8-19.8,4.5-29.9,5.2c2-1.3,4.1-2.4,6.3-3.4c-0.2,0-0.3-0.1-0.5-0.1
				c-1.3-0.1-2.5,0.2-3.8,0.5c-0.6,0.1-1.1,0-1.6-0.3l0-0.6C429.4,663.6,439.7,661.7,449.8,658.6z"/>
			<path d="M449.1,492.4c0,0.2-0.1,0.5-0.1,0.7c-0.8,0.8-1.5,1.6-2.4,2.3c-1-0.8-2.1-1.6-3.1-2.4c1-0.9,2-1.8,2.8-2.7
				C447.3,490.9,448.2,491.6,449.1,492.4z"/>
			<path d="M449,493c-0.2,1.2-0.4,2.4-0.6,3.6c-0.1-0.1-0.3-0.1-0.4-0.2c-0.5-0.4-0.9-0.7-1.4-1.1C447.4,494.6,448.2,493.9,449,493z
				"/>
			<path d="M443.5,492.9c1,0.8,2.1,1.6,3.1,2.4c-5.5,4.9-12.6,8-20,9c-4.8,0.6-9.8,0.3-14.4-1.2c-5-1.6-10.1-4.5-11.9-9.8
				c-2-6,1.3-12.3,3.9-17.5c1.6-3.3,3.4-6.5,5.3-9.6c1,0.8,2,1.6,3,2.3c-1.7,2.9-3.3,5.8-4.8,8.8c-2.3,4.5-5.8,10.7-3.3,15.8
				c2.1,4.2,7.3,6.1,11.5,7c4.3,0.9,8.7,0.8,13-0.1C434.2,498.9,439.3,496.5,443.5,492.9z"/>
			<path d="M445.1,525.5c0.3,0.2,0.6,0.4,0.9,0.6c-0.3,1.2-0.6,2.5-0.9,3.7c-0.7-0.4-1.4-0.9-2.1-1.3
				C444.2,527.9,445.1,526.6,445.1,525.5z"/>
			<path d="M445.1,529.7c-0.9,3.6-1.8,7.1-2.7,10.7c-0.4-0.5-0.7-1-1-1.5c-0.4,1-1.1,1.8-1.9,2.4c-0.2,0.1-0.3,0.3-0.5,0.4l-0.8-0.2
				c1.2-4.5,2.3-8.9,3.4-13.4l1.4,0.3C443.7,528.8,444.4,529.3,445.1,529.7z"/>
			<path d="M441.9,423.7c1.5-1.4,3.6,0.7,2.3,2.3c-0.2,0.2-0.4,0.4-0.5,0.6c-2.9,2.6-5.7,5.3-8.4,8.1c-2.4,2.4-4.7,4.8-7,7.3
				c-0.1,0.1-0.3,0.3-0.5,0.4c-0.6-0.2-1.3-0.3-2-0.2c-1.2,0.3-2.5,0.6-3.7,0.9c0.9-1,1.8-2,2.8-3
				C430.6,434.7,436.1,429.1,441.9,423.7z"/>
			<path d="M446.3,490.2c-0.9,1-1.8,1.9-2.8,2.7c-10.4-8.1-20.7-16.2-31.1-24.3c0.2-0.4,0.4-0.8,0.7-1.1c-1.3-0.2-2.6-1.1-2.9-2.5
				l1.3-1.7C423.1,472.3,434.7,481.2,446.3,490.2z"/>
			<path d="M442.4,540.3c-0.4,1.4-0.7,2.8-1.1,4.1c-0.9-0.9-1.7-1.8-2.3-2.9c0.2-0.1,0.4-0.2,0.5-0.4c0.8-0.6,1.5-1.5,1.9-2.4
				C441.7,539.4,442.1,539.9,442.4,540.3z"/>
			<path class="st1" d="M443.5,492.9c-4.2,3.5-9.3,6-14.7,7.1c-4.2,0.9-8.7,1-13,0.1c-4.3-0.9-9.5-2.8-11.5-7
				c-2.5-5.1,1.1-11.3,3.3-15.8c1.5-3,3.1-5.9,4.8-8.8C422.8,476.7,433.1,484.9,443.5,492.9z"/>
			<path d="M439,541.6c0.6,1,1.4,2,2.3,2.9c-1.4,5.4-2.9,10.9-4.5,16.3c-5.2,17.9-10.9,35.6-16.9,53.3
				c-5.8,16.9-11.8,33.6-17.9,50.4c5.6,0.3,11.3,0.3,16.8-0.1l0,0.6c-1.9,1.1-3.6,2.2-5.3,3.5c-4.7,0.1-9.5,0-14.2-0.3
				c-1.1-0.1-2.3-1.2-1.9-2.4c0.8-2.1,1.6-4.3,2.3-6.5c6.3-17.5,12.6-35.1,18.6-52.7c6-17.6,11.6-35.4,16.6-53.3
				c1.1-3.9,2.1-7.8,3.2-11.7L439,541.6z"/>
			<path d="M435.1,434.6c2.8-2.7,5.6-5.4,8.4-8.1c-4.8,5.4-10.1,10.5-15.5,15.3C430.4,439.4,432.7,437,435.1,434.6z"/>
			<path d="M428.1,441.9c-0.1,0.1-0.3,0.3-0.4,0.4c0,0,0,0-0.1,0C427.8,442.1,428,442,428.1,441.9z"/>
			<path d="M427.6,442.3c-0.8,0.7-1.6,1.5-2.4,2.2c-5.9,5.3-12,10.4-18.3,15.3c1.5,1.2,3,2.4,4.6,3.6l-1.3,1.7
				c-0.3,0.4-0.5,0.9-0.8,1.3c-2.2-1.8-4.5-3.5-6.7-5.2c-1-0.8-0.4-2.3,0.4-2.9c6.9-5.3,13.5-10.8,20-16.6c0.6-0.5,1.1-1,1.7-1.6
				c-0.9,1-1.9,2-2.8,3c1.2-0.3,2.5-0.6,3.7-0.9C426.4,441.9,427,442,427.6,442.3z"/>
			<path d="M424.4,664.7c0.2,0,0.3,0.1,0.5,0.1c-2.2,1-4.3,2.1-6.3,3.4c0,0,0,0,0,0c-1.6,0.1-3.3,0.2-4.9,0.2
				c1.7-1.3,3.5-2.5,5.3-3.5c0.5,0.3,1,0.4,1.6,0.3C421.8,664.9,423.1,664.7,424.4,664.7z"/>
			<path d="M413.1,467.5c-0.2,0.4-0.5,0.8-0.7,1.1c-1-0.8-2-1.6-3-2.3c0.3-0.4,0.5-0.9,0.8-1.3C410.5,466.4,411.8,467.3,413.1,467.5
				z"/>
		</g>
		<g>
		</g>
	</g>
</g>
<g id="Layer_1" class="st6">
	<circle class="st7" cx="501.9" cy="184.2" r="91.2"/>
</g>
<g id="Layer_3">
	<g id="XMLID_1_">
		<g>
			<path class="st5" d="M642.1,313.3c-9.9-5.6-20.4-10.1-31.3-13.3c-2.6-0.8-5.2-1.5-7.9-2.1c0-0.2,0-0.4,0.1-0.6
				c-0.7-0.3-1.3-0.7-2-1.2c-0.6-0.5-0.7-1.5-0.4-2.2c0.1-0.2,0.2-0.4,0.3-0.5c-0.6-0.3-1-0.9-1-1.7c0-0.4,0.1-0.8,0.3-1.1
				c-0.4-0.6-0.4-1.5,0-2.1c0,0,0-0.1,0.1-0.1C615.7,294,630.2,302,642.1,313.3z"/>
			<path d="M605.9,288.3c-0.1-0.2-0.1-0.4-0.2-0.7c0.7,0.3,1.4,0.5,2,0.8C607.4,289.2,606.2,289.3,605.9,288.3z"/>
			<path d="M341.7,317c0-0.4,0.3-0.7,0.7-0.9c-0.3,0.3-0.4,0.6-0.3,0.9C341.9,317,341.8,317,341.7,317z"/>
			<path d="M342.4,316.1c0.2-0.1,0.5-0.2,0.7-0.1c0.8,0.2,1.6,0.4,2.4,0.6c0,0-0.1,0-0.1,0.1c-1.1,0.1-2.1,0.3-3.2,0.4
				c0,0-0.1,0-0.2,0C342,316.7,342.1,316.3,342.4,316.1z"/>
			<path d="M345.4,316.6c-0.6,0.4-1.2,0.8-1.8,1.2c-0.8,0.5-1.5-0.1-1.6-0.8c0.1,0,0.1,0,0.2,0C343.3,316.8,344.3,316.7,345.4,316.6
				z"/>
			<path d="M345.5,316.5c0.1,0,0.1,0,0.2,0c-0.1,0-0.2,0-0.3,0C345.4,316.5,345.5,316.5,345.5,316.5z"/>
			<path d="M449.8,222.3c-7.6,19.4-11.7,40.4-22.7,58.4c-0.2,0.3-0.4,0.4-0.6,0.5c-0.8,0.2-1.8-0.6-1.2-1.6c1.3-2.3,2.6-4.6,3.7-7
				c9.3-19.1,13-40.4,22-59.6c4.5-9.7,10.5-18.6,18.6-25.6c4.7-4.1,9.8-7.6,15-11c5.7-3.7,11.4-7.3,17.1-10.9
				c5.8-3.7,11.7-7.4,17.5-11.2c5.3-3.4,10.6-6.9,16.3-9.7c5.3-2.6,11.1-4.6,17-4.8c5.4-0.2,10.8,1.2,15.5,3.8
				c9.8,5.2,16.8,14.3,22.9,23.3c7.4,10.9,13.7,22.4,20.4,33.8c12,20.4,25.7,41.3,46.3,53.9c1.2,0.7,0.8,3.1-0.8,2.9
				c-5.2-0.7-10.4-1.6-15.6-2.9c-17.8-4.5-34.8-12.6-49.4-23.7c-0.3-1.1-0.7-2.1-1.1-3.1c0.5-0.4,1.3-0.6,1.9-0.2
				c4.1,3.2,8.5,6.1,12.9,8.8c13.7,8.2,28.9,14,44.6,17c-0.3-0.2-0.7-0.5-1-0.7c-19.2-14.5-31.9-35.4-43.7-55.9
				c-6.4-11-12.6-22.2-20-32.6c-6.1-8.5-13.8-17.1-24.1-20.4c-11.8-3.7-23.3,1.8-33.2,7.9c-11.5,7-22.7,14.4-34.1,21.7
				c-10.3,6.6-21.1,13-29.2,22.3C458.2,203.4,453.5,212.8,449.8,222.3z"/>
			<path d="M350.7,313.2c-1.7,1.1-3.5,2.2-5.2,3.3c-0.8-0.2-1.6-0.4-2.4-0.6c-0.3,0-0.5,0-0.7,0.1c0,0,0.1-0.1,0.1-0.1
				c1.1-0.8,2.3-1.6,3.5-2.4c1-0.1,2-0.2,3.1-0.3C349.6,313.3,350.1,313.2,350.7,313.2z"/>
			<path class="st4" d="M643.6,316.9c0.7,0.4,1.4,0,1.7-0.6c1.3,1.4,2.6,2.8,3.9,4.2l0,0c-4.4,4-9.5,7.3-14.8,9.5
				c-2.7,1.1-5.5,2-8.3,2.7c-1.4,0.3-2.8,0.6-4.2,0.8c-1,0.1-2,0.2-3,0.3c-3.1-7.1-5.3-14.5-6.4-22.2c-0.2-1.5-0.4-3.1-0.6-4.6
				c-0.1-1.4-0.3-2.8-0.3-4.1c8.9,2.7,17.6,6.2,25.8,10.5C639.5,314.6,641.6,315.7,643.6,316.9z"/>
			<path d="M349.6,320.4c-2.5-0.7-5-1.4-7.3-2.4c-0.5-0.2-0.6-0.6-0.6-1c0,0,0,0,0,0c0.1,0,0.2,0,0.4,0c0.1,0.7,0.8,1.3,1.6,0.8
				c0.6-0.4,1.2-0.8,1.8-1.2c0.1,0,0.2,0,0.3,0c2,0.5,3.9,1.2,5.9,1.8c2.7,0.8,5.4,1.5,8.1,2.2c19.7,5.2,39.9,8.9,60.2,11.3
				c-0.1,0.7-0.2,1.4-0.3,2.1c-5.7-0.5-11.3-1.2-16.9-2c-10.3-1.5-20.5-3.4-30.6-5.7c-5-1.2-10.1-2.4-15.1-3.8
				C354.5,321.8,352,321.1,349.6,320.4z"/>
			<path d="M610.9,300c10.9,3.2,21.4,7.6,31.3,13.3c0.8,0.7,1.5,1.4,2.3,2.2c0.3,0.3,0.6,0.6,0.9,0.9c-0.3,0.6-1,1-1.7,0.6
				c-2-1.2-4.1-2.3-6.2-3.4c-8.2-4.3-16.9-7.8-25.8-10.5c0-0.6-0.1-1.3-0.1-2C611.5,300.5,611.2,300.2,610.9,300L610.9,300z"/>
			<path class="st5" d="M539.6,274.8c-22.9-1.4-46-1.4-68.9,0.3c-10.9,0.8-21.7,2.1-32.5,3.9c0.4-0.4,0.7-0.8,1-1.2
				c1.2-1.5,2.4-2.9,3.7-4.2c1.4-1.4,2.8-2.8,3.4-4.8c0.3-0.9,0-1.6-0.6-2c0.1-0.2,0.2-0.3,0.3-0.5c0.1,0.1,0.1,0.2,0.2,0.3
				c0.8,0.7,2,0.8,2.8,0c1.4-1.5,2.7-3.3,3.1-5.4c0.1-0.4,0-0.9-0.1-1.4c0.3-0.1,0.5-0.2,0.8-0.2c0.3-0.1,0.5-0.1,0.8-0.2
				c0,0,0.1,0,0.1,0c0,0,0.3,0,0.3,0c1-0.1,2-0.9,2-2c0-0.5-0.2-1-0.6-1.4c1.6-1.1,3.3-2.1,4.9-3.1c2-0.5,4-1.1,5.9-1.9
				c3.1-1.3,5.9-3,8.5-5.2c0.3-0.2,0.6-0.5,0.8-0.8c3.1-1.4,6.2-2.6,9.2-3.9c3.9-1.5,7.8-3.1,11.6-4.6c0.2,0,0.3,0,0.5-0.1
				c0.6-0.2,1.1-0.3,1.7-0.5c0.7-0.1,1.5-0.1,2.2-0.2c0.4,0.6,1.1,1,2.1,0.7c1.4-0.4,2.9-0.8,4.3-1.2c0.8,0,1.6-0.1,2.4-0.1
				c0.1,0.8,0.6,1.6,1.4,1.9c6.1,2.4,13.1,1.9,19.5,1.3c3.2-0.3,6.4-0.7,9.7-1c1.7-0.1,3.3-0.3,5-0.3c2,1.2,4,2.2,6.1,3.1
				c0.4,0.2,0.7,0.3,1.1,0.5c2.1,2,4.5,3.6,7.5,4.3c0.3,0.1,0.5,0.1,0.8,0.1c2.8,2.6,5.8,4.8,9.4,6.4c0.6,0.3,1.2,0.3,1.8,0.1
				c0.8,1.4,1.7,2.9,2.6,4.3c1.9,2.8,4,5.5,6.2,8.1c4.3,5.2,9,10,14,14.5c0.4,0.3,0.8,0.5,1.3,0.5c0.1,0.5,0.2,0.9,0.3,1.4
				c0.4,1.6,0.9,3.2,1.7,4.6C579.4,278.6,559.4,276,539.6,274.8z"/>
			<path d="M439.5,281.2c-0.1-0.9-0.8-1.7-1.8-1.8c0.2-0.2,0.3-0.3,0.5-0.5c10.8-1.8,21.6-3.1,32.5-3.9c22.9-1.7,46-1.6,68.9-0.3
				c19.8,1.2,39.8,3.8,58.7,10.1c0.7,1.1,1.6,2.1,2.8,2.8c-0.3,0.1-0.5,0.4-0.7,0.7c-1.6-0.6-3.2-1.1-4.9-1.7
				c-21-6.8-43.2-9-65.2-9.9c-22.6-0.9-45.4-0.8-67.9,1.4C454.7,279,447.1,280,439.5,281.2z"/>
			<path d="M626.1,332.8c2.8-0.7,5.6-1.6,8.3-2.7c5.3-2.3,10.3-5.5,14.8-9.5c0.6,0.7,1.4,0.5,1.9,0c0.3,0.4,0.3,0.9-0.2,1.4
				c-4.7,4.3-9.9,7.6-15.5,10.1c-2.8,1.2-5.8,2.2-8.8,2.9c-1.4,0.3-2.9,0.6-4.3,0.8c-0.8,0.1-1.6,0.2-2.4,0.3
				c-0.3-0.7-0.6-1.4-0.9-2.1c1-0.1,2-0.2,3-0.3C623.3,333.4,624.7,333.1,626.1,332.8z"/>
			<path d="M651.1,320.6c-0.5,0.5-1.3,0.6-1.9,0c0.1-0.1,0.2-0.2,0.3-0.3C650,319.8,650.7,320.1,651.1,320.6z"/>
			<path class="st5" d="M441.2,290.1c-0.1,0-0.3-0.1-0.4-0.1c0-0.3,0-0.5-0.1-0.7c0.6,0,1.3,0,2,0c2.6-0.1,2.5-3.8,0-4
				c-0.8-0.1-1.6-0.1-2.3-0.2c0.6-1,0.3-2.5-0.9-3c0.1-0.2,0.1-0.4,0.1-0.6c0-0.1,0-0.1,0-0.2c7.6-1.3,15.2-2.2,22.9-3
				c22.5-2.1,45.3-2.3,67.9-1.4c22,0.9,44.2,3.1,65.2,9.9c1.6,0.5,3.3,1.1,4.9,1.7c0,0,0,0.1-0.1,0.1c-0.3,0.6-0.3,1.5,0,2.1
				c-0.2,0.3-0.3,0.7-0.3,1.1c0,0.8,0.4,1.4,1,1.7c-0.1,0.2-0.2,0.3-0.3,0.5c-0.3,0.7-0.2,1.7,0.4,2.2c0.6,0.5,1.3,0.9,2,1.2
				c-0.1,0.2-0.1,0.4-0.1,0.6c-4.1-1-8.3-1.8-12.5-2.4c-19-2.8-38.6-2.1-57.3,2.3c-20.5,4.8-38.9,15.5-59.4,20.3
				c-10.3,2.4-20.8,3-31.3,2.7c-4.2-0.1-8.4-0.4-12.7-0.8c0.2-0.1,0.4-0.2,0.5-0.3c1.1-0.7,1.5-2.8,0-3.5c0,0-0.1,0-0.1,0
				c0.7-0.5,1-1.4,0.8-2.2c0.2,0,0.4,0,0.6-0.1c0.4-0.1,0.7-0.3,0.9-0.5c1.7,0.1,3.4,0.1,5-0.2c2.5-0.4,4.3-1.7,5.5-3.4
				c0.9-0.2,1.5-0.8,1.7-1.7c0.1-0.4,0-0.8-0.2-1.1c0.6-1.4,1-2.9,1.3-4.5c0.2-1.1-0.3-2.1-1.3-2.4c1.4-0.8,1.4-3.4-0.4-3.7
				c-1.1-0.2-2.1-0.4-3.1-0.5c-0.2-0.6-0.7-1.2-1.3-1.5c-0.2-0.1-0.4-0.2-0.7-0.3c0.7-0.1,1.4-0.2,2.1-0.4
				C443.2,293.5,443,290.6,441.2,290.1z"/>
			<path d="M644.8,314.8c-0.9-0.5-1.8-1.1-2.7-1.6c-11.9-11.2-26.5-19.3-41.8-24.8c0.2-0.3,0.4-0.5,0.7-0.7
				c-1.2-0.7-2.1-1.7-2.8-2.8c1.8,0.6,3.6,1.3,5.5,2c0.7,0.3,1.3,0.5,2,0.8c0.1,0.2,0.1,0.4,0.2,0.7c0.3,1,1.5,0.9,1.8,0.2
				c16.4,6.7,31.9,16.6,43.4,30.1c0.6,0.7,0.4,1.5-0.1,2c-0.3-0.5-1-0.8-1.6-0.3c-0.1,0.1-0.2,0.2-0.3,0.3l0,0
				c-1.3-1.4-2.6-2.8-3.9-4.2C645.5,315.8,645.4,315.2,644.8,314.8z"/>
			<path class="st5" d="M449.2,266.5c-0.8,0.8-2,0.7-2.8,0c-0.1-0.1-0.2-0.2-0.2-0.3c-0.1,0.2-0.2,0.4-0.3,0.5
				c0.6,0.4,0.9,1.1,0.6,2c-0.6,1.9-2,3.4-3.4,4.8c-1.4,1.4-2.6,2.7-3.7,4.2c-0.3,0.4-0.7,0.8-1,1.2c-3.9,0.7-7.8,1.4-11.7,2.2v0
				c0.2-0.1,0.5-0.2,0.6-0.5c10.9-18,15.1-39,22.7-58.4c3.7-9.5,8.5-18.8,15.2-26.6c8.1-9.4,18.9-15.7,29.2-22.3
				c11.4-7.2,22.6-14.6,34.1-21.7c9.9-6.1,21.4-11.6,33.2-7.9c10.3,3.2,18,11.9,24.1,20.4c7.4,10.4,13.7,21.6,20,32.6
				c11.8,20.5,24.5,41.4,43.7,55.9c0.3,0.2,0.6,0.5,1,0.7c-15.7-3-30.9-8.7-44.6-17c-4.5-2.7-8.8-5.6-12.9-8.8
				c-0.5-0.4-1.4-0.2-1.9,0.2c-1.5-4.3-3-8.6-4.6-12.8c-1.2-3.3-2.5-6.5-3.8-9.7c-0.7-1.6-1.3-3.2-2-4.8c-0.7-1.7-1.3-3.5-2.3-5.1
				c-0.7-1.2-2.6-0.4-2.3,0.9c0.8,3,2.4,5.9,3.5,8.8c1.2,2.9,2.4,5.9,3.5,8.8c2,5.3,4,10.6,5.8,15.9c0.2,0.6,0.5,1.3,0.7,1.9
				c4.1,11.8,7.8,23.8,11.1,35.9c0.9,3.4,1.8,6.7,2.6,10.1c0.8,3.3,1.5,6.7,2.4,9.9c-0.7-0.3-1.3-0.5-2-0.8c-1.8-0.7-3.6-1.3-5.5-2
				c-0.8-1.4-1.3-3-1.7-4.6c-0.1-0.5-0.2-0.9-0.3-1.4c-0.4,0-0.9-0.2-1.3-0.5c-5.1-4.4-9.8-9.3-14-14.5c-2.2-2.6-4.3-5.3-6.2-8.1
				c-1-1.4-1.8-2.8-2.6-4.3c-0.6,0.2-1.2,0.2-1.8-0.1c-3.5-1.5-6.6-3.8-9.4-6.4c-0.2,0-0.5,0-0.8-0.1c-3-0.7-5.5-2.3-7.5-4.3
				c-0.4-0.2-0.7-0.3-1.1-0.5c-2.1-0.9-4.2-1.9-6.1-3.1c-1.7,0.1-3.3,0.2-5,0.3c-3.2,0.3-6.4,0.7-9.7,1c-6.4,0.6-13.4,1.1-19.5-1.3
				c-0.8-0.3-1.4-1.1-1.4-1.9c-0.8,0-1.6,0.1-2.4,0.1c-1.4,0.4-2.9,0.8-4.3,1.2c-0.9,0.3-1.7-0.1-2.1-0.7c-0.7,0.1-1.5,0.1-2.2,0.2
				c-0.6,0.2-1.1,0.4-1.7,0.5c-0.2,0.1-0.3,0.1-0.5,0.1c-3.9,1.6-7.7,3.1-11.6,4.6c-3.1,1.2-6.2,2.5-9.2,3.9
				c-0.3,0.3-0.6,0.5-0.8,0.8c-2.6,2.2-5.4,3.9-8.5,5.2c-1.9,0.8-3.9,1.4-5.9,1.9c-1.7,1-3.3,2-4.9,3.1c0.3,0.4,0.5,0.9,0.6,1.4
				c0,1.1-1,1.9-2,2c0,0-0.3,0-0.3,0c0,0-0.1,0-0.1,0c-0.3,0-0.5,0.1-0.8,0.2c-0.3,0.1-0.5,0.1-0.8,0.2c0.2,0.4,0.2,0.9,0.1,1.4
				C451.9,263.2,450.6,265,449.2,266.5z M522.3,175.3c0.9-0.8-0.3-2.3-1.3-1.6c-2.3,1.5-4.5,3.2-7,4.4c-2.5,1.3-5.2,2.3-7.9,3.1
				c-5.4,1.6-11,2.1-16.6,1.6c-1.4-0.1-1.3,2,0,2.1c5.8,0.5,11.8,0,17.4-1.7C512.3,181.6,518.1,179.1,522.3,175.3z"/>
			<path d="M349,311.6c17.5-11.1,36.8-19.4,56.7-25.2c6.8-2,13.8-3.7,20.8-5.2c3.9-0.8,7.8-1.6,11.7-2.2c-0.1,0.2-0.3,0.3-0.5,0.5
				c0.9,0.1,1.6,0.8,1.8,1.8c-13.8,2.3-27.4,5.4-40.6,9.8c-16.9,5.5-33.1,12.8-48.2,22.2c-0.5,0-1.1,0.1-1.6,0.1
				c-1,0.1-2.1,0.2-3.1,0.3C347,312.9,348,312.3,349,311.6z"/>
			<path d="M644.8,314.8c0.6,0.4,0.7,1,0.5,1.5c-0.3-0.3-0.6-0.6-0.9-0.9c-0.7-0.7-1.5-1.5-2.3-2.2
				C643,313.8,643.9,314.3,644.8,314.8z"/>
			<path d="M607.8,287.8c0,0.3,0,0.5-0.1,0.7c-0.7-0.3-1.3-0.6-2-0.8c-0.9-3.3-1.6-6.6-2.4-9.9c-0.8-3.4-1.7-6.8-2.6-10.1
				c-3.3-12.1-7-24-11.1-35.9c-0.2-0.6-0.4-1.3-0.7-1.9l1.5-0.5c0.1,0.4,0.4,0.7,0.7,1c0.3,0.2,0.5,0.4,0.8,0.6
				c2.3,6.6,4.4,13.3,6.4,20.1c1.8,6.1,3.5,12.2,5.1,18.3C605,275.4,606.8,281.6,607.8,287.8z"/>
			<path d="M350.7,313.2c20.3-1.4,40.6,2,60.7,4.7c6.1,0.8,12.2,1.6,18.3,2.1c-0.9,0.4-1.9,0.6-2.9,0.7c-1,0-2,0-2.8-0.1
				c-0.9-0.1-1.8-0.2-2.6-0.3c0,0,0,0,0-0.1c-0.3-1.3-2.4-0.8-2.1,0.6c0.1,0.3,0.1,0.7,0.2,1c-5.1-0.6-10.2-1.3-15.3-2
				c-19.3-2.6-39-5.4-58.6-3.2c-0.1,0-0.1,0-0.2,0C347.2,315.4,348.9,314.3,350.7,313.2z"/>
			<path d="M342.5,316c0,0-0.1,0.1-0.1,0.1c-0.4,0.2-0.6,0.5-0.7,0.9c0,0,0,0,0,0c-1.5-0.3-1.9-2.6-0.3-2.8c1.5-0.2,3-0.4,4.6-0.6
				C344.8,314.4,343.6,315.1,342.5,316z"/>
			<path class="st5" d="M444.6,307.1c0.1,0.3,0.2,0.7,0.2,1.1c-0.1,0.9-0.8,1.5-1.7,1.7c-1.3,1.7-3,3-5.5,3.4
				c-1.7,0.3-3.4,0.3-5,0.2c-0.2,0.3-0.5,0.5-0.9,0.5c-0.2,0-0.4,0-0.6,0.1c0.1,0.8-0.1,1.7-0.8,2.2c0,0,0.1,0,0.1,0
				c1.5,0.6,1.1,2.7,0,3.5c-0.2,0.1-0.3,0.2-0.5,0.3c-6.1-0.5-12.3-1.3-18.3-2.1c-20.1-2.7-40.4-6.1-60.7-4.7
				c15-9.4,31.3-16.7,48.2-22.2c13.3-4.3,26.9-7.5,40.6-9.8c0,0.1,0,0.1,0,0.2c0,0.2,0,0.4-0.1,0.6c1.2,0.5,1.5,2,0.9,3
				c0.8,0.1,1.6,0.1,2.3,0.2c2.5,0.2,2.6,3.9,0,4c-0.6,0-1.3,0-2,0c0.1,0.2,0.1,0.5,0.1,0.7c0.1,0,0.3,0.1,0.4,0.1
				c1.8,0.5,2,3.5,0,3.9c-0.7,0.1-1.4,0.2-2.1,0.4c0.2,0.1,0.4,0.2,0.7,0.3c0.6,0.3,1.1,0.9,1.3,1.5c1,0.1,2.1,0.3,3.1,0.5
				c1.8,0.3,1.8,2.9,0.4,3.7c1,0.3,1.5,1.3,1.3,2.4C445.6,304.1,445.2,305.6,444.6,307.1z"/>
			<path class="st8" d="M469.6,462c0.6,1.3,1.3,2.6,1.9,3.9c-0.1-0.1-0.2-0.1-0.3-0.2c-0.4-0.1-1,0.1-1.2,0.5
				c-0.5,1.3-0.7,2.8-0.7,4.2c0,0.7,0.1,1.3,0.1,2c0,0.2,0.1,0.4,0.1,0.6c-4.3-2.1-8-4.9-10.9-8.7c-3.1-4-5.2-8.8-6-13.8
				c-0.2-1.3-2.2-0.8-2,0.6c0.2,1.3,0.4,2.5,0.8,3.8l0,0c-0.2-0.5-0.6-0.9-1.3-0.6c-1.5,0.5-2.8,1.4-4.2,2.1l-2.5,1.3
				c-0.1-6.5-0.8-13-2-19.4c-0.7-3.5-1.5-7-2.5-10.4c-0.5-1.7-1.1-3.4-1.7-5.1c-0.1-0.2-0.1-0.4-0.2-0.5c-0.5-1.5-1-3.2-1.8-4.5
				c-0.7-1-2-0.4-1.8,0.8c0.2,1.1,0.7,2.3,1.1,3.4c-0.1,0-0.3,0-0.5,0.1c-3.9,1.5-7.9,2.6-12,3.2c3.7-6.2,4.8-14.3,2.1-21
				c0.6-0.1,1.2-0.3,1.8-0.5c1.5-0.4,0.9-2.6-0.6-2.3c-0.9,0.2-1.9,0.4-2.8,0.6c-3.2,0.6-6.4,0.8-9.7,0.6c4.9-6.8,8-15,8.7-23.3
				c0.6-0.4,1.2-0.8,1.8-1.3c1-1-0.3-2.7-1.5-1.9c-0.6,0.4-1.2,0.8-1.8,1.1c-0.6,0.4-1.2,0.7-1.8,1c-0.4,0.2-0.9,0.3-1.3,0.5
				c1.6-3.5,2.9-7.2,3.5-11c0.4-2.3,0.6-4.5,0.7-6.8c0-1.2,0-2.5,0-3.7c-0.1-1.1,0-2.4-0.4-3.5c-0.4-1.1-1.9-0.9-2,0.3
				c0,0.1,0,0.2,0,0.3c-0.1,0-0.2,0-0.3,0c-1.9,0.5-3.7,1.1-5.7,1.4c-0.8,0.1-1.6,0.1-2.5,0.1c5.6-4.9,9.5-11.4,11.3-18.5
				c7.3,46,47.2,81.2,95.3,81.2c45.9,0,84.3-32.1,94.1-75c1.6,1.1,3.2,2.2,4.8,3.1c0,0,0,0.1,0,0.1c0,2.4,0.7,5,1.2,7.3
				c0.6,2.5,1.3,4.9,2.1,7.3c1.3,3.8,3,7.5,4.9,11c-2.3-0.6-4.4-1.5-6.4-2.7c0,0,0,0,0,0c-0.1-0.1-0.2-0.1-0.3-0.1
				c0.1-0.3,0.2-0.6,0.3-1c0.4-1.3-1.5-1.8-2-0.6c-0.3,0.7-0.5,1.4-0.7,2.1c-3,9.6-1.8,20.4,2.9,29.3c-2-0.1-3.9-0.3-5.9-0.6
				c-1.3-0.2-2.6-0.5-3.9-0.8c-0.9-0.2-1.8-0.5-2.7-0.7c0-1.5,0-3.1,0-4.6c0-1.4-2.1-1.4-2.2,0c-0.1,1.7-0.2,3.4-0.2,5.1
				c-0.2,0.4-0.2,0.9,0,1.3c0.1,12.4,2.7,25,7.1,36.6c-1.8-0.1-3.6-0.4-5.4-0.9c-2.2-0.6-4.2-1.6-6.2-2.6c0.2-1.1,0.3-2.3,0.4-3.5
				c0.1-1.4-2-1.4-2.2,0c-0.2,1.2-0.3,2.5-0.5,3.7c-0.1,0.2-0.2,0.5-0.1,0.7c-2.3,12.5-7.9,24.3-16.5,33.8c-2.1,2.3-4.3,4.4-6.6,6.4
				c0-2.6-0.4-5.3-1.3-7.7c-0.3-0.8-1.2-1-1.8-0.8c0-0.1,0-0.1,0.1-0.1c0.6-1.1,1.2-2.3,1.8-3.4c0.7-1.2,1.5-2.2,2.2-3.3
				c0.6-1-0.8-2-1.6-1.2c-1.8,1.6-2.9,4-4.1,6.1c-1.2,2.1-2.4,4.2-3.8,6.2c-2.4,3.3-5.4,6.1-8.8,8.5c-0.1-1-0.2-1.9-0.3-2.9
				c-0.2-1.6-0.3-3.4-0.7-5c-0.2-0.7-0.8-0.9-1.4-0.8c1.4-3.7,1.9-7.7,1.3-11.7c-0.3-1.6-2.8-0.9-2.5,0.7
				c1.5,9.5-4.7,17.9-10.9,24.4c-3.4,3.5-6.9,6.9-10.3,10.4c-3.5,3.4-7.1,6.8-10.4,10.4c-0.3-1.7-1-3.3-1.8-4.7
				c-2-3.6-5.4-6.1-8.9-8.2c-7-4-16.1-6.6-19-15c-1.6-4.6-1.1-9.3-0.9-14.1c0-1.5-2.4-1.9-2.7-0.4c-1.1,6.5-0.6,13.8,3.1,19.4
				c-0.4,0.1-0.7,0.4-0.8,0.9c-0.5,2.1-1,4.2-1.5,6.3c-6.2-8-11.5-16.6-16.1-25.6C470.8,459.8,469.1,460.8,469.6,462z"/>
			<path class="st4" d="M617.7,347.4c-0.8-0.4-1.5-0.8-2.3-1.3c0-0.6,0.7-0.9,1.2-0.9c0.4,0,0.7,0.3,0.8,0.7
				C617.5,346.4,617.6,346.9,617.7,347.4z"/>
			<path class="st4" d="M443.5,323.6c-0.9,0-1.7,0-2.6-0.1c0.1-0.3,0.1-0.5,0.3-0.8c0.2-0.6,0.7-0.8,1.1-0.8c0.6,0,1.1,0.4,1.2,1.1
				C443.5,323.2,443.5,323.4,443.5,323.6z"/>
			<path class="st4" d="M423.4,402.6c-0.2-0.4-0.6-0.5-1-0.5l-0.1-0.3c0.9-0.2,1.9-0.4,2.8-0.6c1.5-0.4,2.1,1.8,0.6,2.3
				c-0.6,0.2-1.2,0.3-1.8,0.5C423.8,403.5,423.6,403.1,423.4,402.6z"/>
			<path d="M490.3,474.4c2.9,8.4,12,11,19,15c3.5,2,6.9,4.6,8.9,8.2c0.8,1.4,1.5,3.1,1.8,4.7c-0.2,0.2-0.4,0.4-0.5,0.6
				c-0.2,0.3-0.3,0.5-0.3,0.8l-1.3,0.1c-0.1-0.9-0.3-1.8-0.6-2.7c-0.7-2.1-2-4-3.6-5.5c-6-5.8-15-7.3-21.1-13
				c-0.4-0.4-0.8-0.8-1.2-1.2c0-0.1,0.1-0.3,0.1-0.5c0.3-1.1-0.8-1.8-1.6-1.5c-3.6-5.6-4.1-12.9-3.1-19.4c0.3-1.5,2.7-1.1,2.7,0.4
				C489.2,465.1,488.7,469.8,490.3,474.4z"/>
			<path class="st4" d="M616.1,371.7c0.2-0.9,0.4-1.9,0.7-2.8c0.1,0,0.2,0.1,0.3,0.1c0,0,0,0,0,0c2.1,1.2,4.2,2.1,6.4,2.7
				c-1.9-3.5-3.6-7.2-4.9-11c-0.8-2.4-1.5-4.8-2.1-7.3c-0.5-2.4-1.2-4.9-1.2-7.3c0,0,0-0.1,0-0.1c0.8,0.5,1.5,0.9,2.3,1.3
				c0.4,1.9,0.7,3.9,1.2,5.8c0.6,2.3,1.3,4.6,2.1,6.8c1.6,4.6,3.8,8.9,6.4,13.1c0.5,0.8-0.1,2.2-1.2,2
				C622.7,374.6,619.1,373.6,616.1,371.7z"/>
			<path d="M473.7,318c20.4-4.8,38.9-15.4,59.4-20.3c18.8-4.4,38.3-5.1,57.3-2.3c4.2,0.6,8.4,1.4,12.5,2.4c0,0.3,0.1,0.6,0.3,0.9
				c0.4,0.8,1,1.3,1.8,1.7c0,0.2,0.1,0.5,0.1,0.7c-2.8-0.7-5.7-1.4-8.5-1.9c0-0.1,0-0.1,0-0.2c-0.1-1.3-1.9-1.3-2.1-0.1
				c-4.1-0.7-8.3-1.3-12.4-1.7c-19.1-1.8-38.6,0-57,5.6c-20,6.1-38.5,16.5-59.4,19.6c-7.4,1.1-14.7,1.4-22.1,1.3c0-0.2,0-0.4,0-0.6
				c0-0.8-0.6-1.1-1.2-1.1l0-1.1C452.9,321,463.4,320.4,473.7,318z"/>
			<path d="M609,301.4c0.1,0,0.2,0,0.4,0c0,0.3,0,0.6,0,1c-1.5-0.4-2.9-0.8-4.3-1.2c0-0.2-0.1-0.5-0.1-0.7c0.6,0.3,1.2,0.5,1.8,0.6
				C607.6,301.2,608.3,301.3,609,301.4z"/>
			<path d="M551.9,470.5c0-0.4,0-0.8,0-1.2c0-0.6,0.5-1.1,1-1.1c-0.1,0.2-0.2,0.4-0.2,0.6C552.4,469.4,552.1,470,551.9,470.5z"/>
			<path class="st4" d="M445.5,346.7l-0.1,0.3c-0.4-0.1-0.8,0-1.2,0.4c-0.4,0.4-0.7,0.8-0.9,1.2c-0.7-0.3-1.3-0.7-1.9-1.2
				c-1-0.8,0.3-2,1.3-1.6C443.7,346.1,444.6,346.5,445.5,346.7z"/>
			<path class="st8" d="M613,324.6c-0.2,5.3-0.8,10.4-1.7,15.4c-1.5-1.1-2.9-2.2-4.4-3.4c0.9-4.8,1.2-9.8,1-14.9
				c-0.9-6.8-1.8-13.6-2.8-20.5c1.4,0.4,2.9,0.8,4.3,1.2C609.7,309.9,610.8,317.4,613,324.6z"/>
			<path class="st4" d="M469.6,475.5c-8.9-3.5-15.6-11.7-18.1-20.8c-0.3-1.2-0.6-2.5-0.8-3.8c-0.2-1.3,1.8-1.9,2-0.6
				c0.8,5,2.8,9.8,6,13.8c3,3.8,6.7,6.6,10.9,8.7c0,0,0,0,0,0c0.1,0.6,0.2,1.1,0.5,1.6c0.2,0.3,0.5,0.5,0.8,0.5
				C470.6,475.4,470.1,475.7,469.6,475.5z"/>
			<path d="M429.7,320c4.2,0.4,8.4,0.6,12.7,0.8l0,1.1c-0.5,0-0.9,0.3-1.1,0.8c-0.1,0.3-0.2,0.5-0.3,0.8c-4.7-0.1-9.3-0.5-14-0.9
				c0-0.3-0.1-0.6-0.1-0.9c0-0.4,0-0.7,0-1C427.8,320.6,428.9,320.4,429.7,320z"/>
			<path d="M553,479c-0.2-1.6-0.4-3.2-0.6-4.9c-0.2-1.2-0.4-2.5-0.5-3.7c0.3-0.6,0.5-1.1,0.7-1.7c0.1-0.2,0.2-0.4,0.2-0.6
				c0.6-0.1,1.2,0.1,1.4,0.8c0.4,1.6,0.5,3.3,0.7,5c0.1,1,0.2,1.9,0.3,2.9c3.3-2.3,6.3-5.2,8.8-8.5c1.5-2,2.6-4,3.8-6.2
				c1.1-2.1,2.3-4.5,4.1-6.1c0.8-0.8,2.2,0.2,1.6,1.2c-0.7,1.1-1.5,2.2-2.2,3.3c-0.7,1.1-1.2,2.2-1.8,3.4c0,0,0,0.1-0.1,0.1
				c-0.4,0.2-0.7,0.5-0.7,1.1c0,0.1,0,0.1,0,0.2c-0.9,1.7-2,3.3-3.1,4.8c-3,3.9-6.5,7.2-10.7,9.8C554,480.7,553.1,479.9,553,479z"/>
			<path class="st8" d="M622.8,346.8c-1.9-0.8-3.7-1.8-5.5-2.8c-2.1-1.2-4.1-2.6-6.1-4c1-5,1.6-10.2,1.7-15.4
				c1,3.7,2.3,7.3,3.9,10.8C618.5,339.3,620.5,343.1,622.8,346.8z"/>
			<path d="M610.6,343c-1.5-1.1-2.9-2.3-4.3-3.5c0.2-0.9,0.4-1.9,0.6-2.9c1.4,1.2,2.9,2.4,4.4,3.4C611,341,610.8,342,610.6,343z"/>
			<path class="st4" d="M606.5,414.5c1.3,7.4,3.5,14.5,6.3,21.5c0.3,0.8-0.5,1.6-1.3,1.7c-4.6,0.1-9.9-0.8-14-3.3
				c0.2-1,0.3-1.9,0.5-2.9c2,1,4,2,6.2,2.6c1.8,0.5,3.6,0.8,5.4,0.9c-4.4-11.6-7-24.1-7.1-36.6c0.1,0.2,0.2,0.3,0.4,0.5
				c0.6,0.4,1.3,0.6,2,0.8C605.1,404.6,605.6,409.6,606.5,414.5z"/>
			<path class="st8" d="M606.3,339.5c1.4,1.3,2.8,2.4,4.3,3.5c-9.8,43-48.2,75-94.1,75c-48.1,0-88-35.2-95.3-81.2
				c1.2-4.8,1.4-9.8,0.5-14.8c1.7,0.2,3.5,0.4,5.2,0.5c1,7.7,2.1,15.4,3.1,23.1c4.3,15.3,12.1,28.6,23.3,39.9
				c17.7,16.3,39.5,26.5,64,26.5c12.5,0.5,24.1-2.1,34.9-7.8c11.2-3.6,20.9-9.9,29.1-18.7c8.8-8.2,15.1-17.9,18.7-29.1
				C602.9,351.1,605,345.4,606.3,339.5z"/>
			<path d="M517.5,507.5c0.3-1.3,0.4-2.5,0.3-3.7l1.3-0.1c0,0.6,0.5,1.1,1,1.1c0,1.2-0.3,2.4-0.8,3.5
				C518.8,509.4,517.3,508.5,517.5,507.5z"/>
			<path d="M427,322.6c-1.7-0.2-3.5-0.4-5.2-0.5c-0.1-0.6-0.2-1.2-0.4-1.8c0.9,0.1,1.8,0.2,2.6,0.3c0.9,0.1,1.9,0.1,2.8,0.1
				c0,0.4,0,0.7,0,1C426.9,322,426.9,322.3,427,322.6z"/>
			<path class="st8" d="M607.8,321.7c0.2,5.1-0.1,10.1-1,14.9c-0.1-0.1-0.2-0.2-0.3-0.3c-1.2-1-2.9,0.6-1.7,1.7c0.5,0.5,1,1,1.5,1.4
				c-1.3,5.9-3.4,11.6-6.3,17.1c-3.6,11.2-9.9,20.9-18.7,29.1c-8.2,8.8-17.9,15.1-29.1,18.7c-10.8,5.7-22.4,8.3-34.9,7.8
				c-24.5,0-46.3-10.3-64-26.5c-11.2-11.3-19-24.6-23.3-39.9c-1-7.7-2.1-15.4-3.1-23.1c4.7,0.5,9.3,0.8,14,0.9
				c-0.5,1.9-0.4,4.1-0.3,5.9c0.1,2.3,0.4,4.7,1,6.9c0.9,3.7,2.3,7.2,4.3,10.4c-0.1,0-0.3-0.1-0.4-0.1c-0.9-0.2-1.8-0.6-2.7-1
				c-1-0.4-2.2,0.8-1.3,1.6c0.6,0.5,1.2,0.9,1.9,1.2c-0.6,1.5-0.1,3.2,0.9,4.5c1.4,1.9,3.6,3.3,5.7,4.3c4.5,2.3,9.5,3.3,14.5,3.4
				c5.8,0.1,11.5-0.9,17.2-1.9c5.8-1.1,11.7-2,17.6-2.7c11.9-1.3,23.9-1.5,35.8-0.4c11.3,1.1,23,4.1,34.3,1.6
				c9.1-2,18.3-8.3,20.3-17.9c1.3-0.3,2.6-0.6,3.8-0.9c1.6-0.5,0.9-2.6-0.7-2.4c-1.5,0.2-3.1,0.6-4.6,1c-0.1,0-0.2,0-0.3,0.1
				c6-11.7,9-24.8,8.5-38c2.8,0.5,5.7,1.2,8.5,1.9C606,308,606.9,314.8,607.8,321.7z M553.2,374.7c1.3-0.6,0.4-2.6-0.9-2.2
				c-4.8,1.3-9.5,3-14.4,4.1c-4.8,1.1-9.8,1.8-14.7,2.1c-9.9,0.7-20,0.1-29.7-2c-2.7-0.6-5.3-1.2-7.9-2c-2.8-0.8-5.4-1.9-8.2-2.7
				c-1.1-0.3-1.8,1.3-0.8,1.9c4.4,2.3,9.6,3.6,14.5,4.8c5,1.2,10,2,15.1,2.5c10.2,0.9,20.4,0.4,30.4-1.6
				C542.3,378.5,548.1,377.1,553.2,374.7z M528.7,388.9c1.4-0.8,0.2-2.6-1.2-2c-3.4,1.4-6.8,2-10.5,1.8c-1.9-0.1-3.7-0.4-5.5-0.7
				c-1.8-0.4-3.8-1.1-5.6-1.2c-1,0-1.4,1.4-0.5,1.9c1.8,0.9,4,1.1,6,1.5c2,0.4,4.1,0.7,6.1,0.8C521.2,391.2,525.4,390.8,528.7,388.9
				z"/>
			<path d="M520,502.3c0.1,0.8,0.2,1.6,0.2,2.5c-0.6,0-1-0.5-1-1.1c0-0.3,0.1-0.5,0.3-0.8C519.6,502.7,519.8,502.5,520,502.3z"/>
			<path class="st4" d="M588,338.6c0.1-0.4,0.3-0.6,0.6-0.7c0.6-0.2,1.5,0.3,1.4,1.2c0,0.2-0.1,0.3-0.1,0.5
				c-0.7,0.1-1.5,0.3-2.2,0.4C587.7,339.5,587.8,339.1,588,338.6z"/>
			<path d="M617.6,334.1c0.4-0.1,0.9-0.2,1.3-0.2c0.3,0.7,0.6,1.4,0.9,2.1c-0.7,0.1-1.4,0.1-2,0c-0.4,0-0.6-0.4-0.8-0.7
				C616.9,334.8,617,334.2,617.6,334.1z"/>
			<path d="M617.3,344c1.8,1,3.6,2,5.5,2.8c-2.3-3.7-4.3-7.5-6-11.5l0.2-0.1c0.1,0.4,0.4,0.7,0.8,0.7c0.7,0.1,1.3,0.1,2,0
				c2.1,4.5,4.6,8.9,7.5,13c0.7,0.9-0.4,2.3-1.5,1.9c-2.8-1-5.5-2.1-8.1-3.5c-0.1-0.5-0.2-1-0.3-1.4c-0.1-0.4-0.4-0.6-0.8-0.7
				L617.3,344z"/>
			<path class="st4" d="M445.4,347c0.9,0.2,1.4,1.3,0.7,2.2c0,0-0.1,0.1-0.1,0.1c-0.9-0.1-1.8-0.4-2.7-0.8c0.2-0.4,0.5-0.8,0.9-1.2
				C444.6,347,445.1,346.9,445.4,347z"/>
			<path d="M551.6,457.2c-0.3-1.6,2.3-2.3,2.5-0.7c0.6,4,0.1,7.9-1.3,11.7c-0.5,0.1-1,0.5-1,1.1c0,0.4,0,0.8,0,1.2
				c-2.9,6.3-7.8,11.3-12.7,16.1c-3,3-6,5.9-9,8.9c-3,3-6,6.1-9.1,8.9c-0.3,0.2-0.6,0.3-0.8,0.3c0-0.8,0-1.6-0.2-2.5
				c3.3-3.6,6.9-6.9,10.4-10.4c3.5-3.4,7-6.8,10.3-10.4C546.9,475.1,553.1,466.7,551.6,457.2z"/>
			<path d="M418.4,353.8c0,0.8,0.1,1.5,0.1,2.3c-3.5,1.7-8.1,2-11.9,1.5c-1.2-0.1-1.7-1.6-0.6-2.3c7.1-5,11.9-12.9,13.5-21.4
				c0.2,0,0.3,0,0.5,0c0.4,0,0.6-0.1,0.8-0.3c0.1,1,0.3,2,0.4,3.1c-1.8,7.1-5.7,13.7-11.3,18.5c0.8,0,1.6,0,2.5-0.1
				c2-0.2,3.8-0.9,5.7-1.4C418.2,353.8,418.3,353.8,418.4,353.8z"/>
			<path d="M421.4,320.3c0.1,0.6,0.3,1.2,0.4,1.8c-0.6-0.1-1.2-0.1-1.7-0.2c0-0.1,0-0.2,0-0.3c0-0.5,0-1,0-1.4
				C420.5,320.1,420.9,320.2,421.4,320.3z"/>
			<path class="st4" d="M441.6,336.4c-0.5-2.3-0.9-4.6-1-6.9c-0.1-1.8-0.2-4.1,0.3-5.9c0.9,0,1.7,0.1,2.6,0.1c0,0.9-0.2,1.9-0.2,2.8
				c-0.1,1.1-0.1,2.2,0,3.3c0.1,2.1,0.4,4.2,0.9,6.3c1,4.2,2.9,8.2,5.3,11.8c0.5,0.8-0.2,1.9-1.1,1.9c-0.8,0-1.6-0.1-2.4-0.2
				c0,0,0.1-0.1,0.1-0.1c0.7-0.9,0.1-2-0.7-2.2l0.1-0.3c0.1,0,0.3,0.1,0.4,0.1C443.9,343.6,442.5,340.1,441.6,336.4z"/>
			<path class="st1" d="M476,323c-5.5,0-10,4.5-10,10s4.5,10,10,10s10-4.5,10-10S481.5,323,476,323z M446,349.4
				c0.8,0.2,1.6,0.2,2.4,0.2c0.9,0,1.6-1.1,1.1-1.9c-2.5-3.6-4.3-7.5-5.3-11.8c-0.5-2-0.8-4.1-0.9-6.3c0-1.1,0-2.2,0-3.3
				c0-0.9,0.2-1.8,0.2-2.8c7.4,0.1,14.8-0.2,22.1-1.3c20.9-3.1,39.4-13.5,59.4-19.6c18.4-5.6,37.9-7.4,57-5.6
				c4.2,0.4,8.3,1,12.4,1.7c0,0,0,0.1,0,0.1c0.2,13.8-3.1,27.4-9.9,39.4c-0.6,1,0.4,2.1,1.4,1.9c0.5-0.1,1-0.2,1.5-0.3
				c-2.2,7.4-9.2,12.3-16.3,14.4c-10.2,3-21,0.5-31.3-0.8c-10.9-1.4-21.9-1.7-32.9-1c-5.5,0.4-10.9,0.9-16.3,1.8
				c-5.4,0.8-10.8,2-16.3,2.8c-5.6,0.8-11.5,1.2-17.1-0.1c-2.5-0.6-4.9-1.5-7.2-2.8c-1.1-0.6-2.2-1.3-3-2.2
				C446.7,351.5,445.6,350.2,446,349.4z M565,333c0-5.5-4.5-10-10-10s-10,4.5-10,10s4.5,10,10,10S565,338.5,565,333z"/>
			<path class="st4" d="M588.1,337.3c0.1,0,0.2,0,0.3-0.1l0.2,0.7c-0.3,0.1-0.5,0.3-0.6,0.7c-0.1,0.5-0.2,1-0.4,1.4
				c-0.5,0.1-1,0.2-1.5,0.3c-1.1,0.2-2-0.9-1.4-1.9c6.8-12,10.1-25.7,9.9-39.4c0,0,0-0.1,0-0.1c0.7,0.1,1.4,0.3,2.1,0.4
				C597.1,312.4,594.1,325.6,588.1,337.3z"/>
			<path class="st4" d="M470.5,473.3c0.7,0.3,0.7,1.1,0.4,1.7c-0.3,0-0.6-0.2-0.8-0.5c-0.3-0.5-0.4-1.1-0.5-1.6
				C469.9,473,470.2,473.1,470.5,473.3z"/>
			<path class="st4" d="M620.9,399.6c0.6,0.9-0.2,2.1-1.2,2.1c-2.9,0-5.7-0.2-8.5-0.7c-1.5-0.2-2.9-0.5-4.4-0.9
				c-0.6-0.1-1.3-0.3-1.9-0.5c0-1-0.1-2-0.1-3c0.9,0.2,1.8,0.5,2.7,0.7c1.3,0.3,2.6,0.6,3.9,0.8c1.9,0.3,3.9,0.5,5.9,0.6
				c-4.7-8.9-5.9-19.7-2.9-29.3l0.8,0.2c-0.2,0.5-0.1,1.2,0.6,1.7c0.1,0.1,0.3,0.2,0.4,0.3C614,381.2,615.5,391.3,620.9,399.6z"/>
			<path d="M618.9,333.9c-0.4,0.1-0.9,0.1-1.3,0.2c-0.6,0.1-0.7,0.7-0.5,1.1l-0.2,0.1c-1.5-3.5-2.8-7.1-3.9-10.8c0-1,0-2,0-3.1
				c0-3.3-0.2-6.6-0.5-9.8C613.7,319.3,615.8,326.8,618.9,333.9z"/>
			<path d="M617.3,344l-0.7,1.2c-0.5-0.1-1.1,0.2-1.2,0.9c-1.7-0.9-3.3-2-4.8-3.1c0.2-1,0.4-2,0.6-3
				C613.2,341.5,615.2,342.8,617.3,344z"/>
			<path class="st4" d="M615.1,367.4c0.5-1.2,2.5-0.8,2,0.6c-0.1,0.3-0.2,0.6-0.3,1c-0.7-0.2-1.4,0.2-1.7,0.8l-0.8-0.2
				C614.6,368.8,614.8,368.1,615.1,367.4z"/>
			<path class="st4" d="M615.2,369.8c0.3-0.6,1-1.1,1.7-0.8c-0.3,0.9-0.5,1.8-0.7,2.8c-0.1-0.1-0.3-0.2-0.4-0.3
				C615,371,614.9,370.3,615.2,369.8z"/>
			<path d="M613,321.5c0,1,0,2.1,0,3.1c-2.1-7.2-3.3-14.7-3.5-22.2c0.6,0.2,1.2,0.3,1.8,0.5c0.3,1.4,0.5,2.8,0.7,4.3
				c0.2,1.5,0.3,3,0.6,4.6C612.8,314.9,613,318.2,613,321.5z"/>
			<path class="st2" d="M611.9,307.1c0.2,1.5,0.4,3,0.6,4.6C612.3,310.2,612.1,308.7,611.9,307.1z"/>
			<path d="M611.6,303c0.1,1.4,0.2,2.8,0.3,4.1c-0.2-1.4-0.5-2.8-0.7-4.3C611.3,302.9,611.5,303,611.6,303z"/>
			<path d="M609.7,301.4C609.7,301.4,609.7,301.4,609.7,301.4c-0.1,0-0.2,0-0.3,0c0-0.1,0-0.2,0-0.3c0-0.9,0.8-1.2,1.4-1
				c0.4,0.1,0.7,0.5,0.7,1c0,0.7,0,1.3,0.1,2c-0.1,0-0.3-0.1-0.4-0.1c-0.1-0.4-0.2-0.9-0.3-1.3c-0.2,0-0.5,0-0.7,0
				c-0.1,0-0.2-0.1-0.4-0.1C609.8,301.4,609.8,301.4,609.7,301.4z"/>
			<path d="M609.7,301.4C609.7,301.4,609.7,301.4,609.7,301.4c0.1,0,0.1,0,0.2,0c0.1,0,0.3,0.1,0.4,0.1c0.2,0.1,0.5,0.1,0.7,0
				c0.1,0.4,0.2,0.9,0.3,1.3c-0.6-0.2-1.2-0.4-1.8-0.5c0-0.3,0-0.6,0-1C609.5,301.4,609.6,301.4,609.7,301.4z"/>
			<path d="M610.9,300L610.9,300c-0.6-0.1-1.5,0.2-1.5,1.1c0,0.1,0,0.2,0,0.3c-0.1,0-0.2,0-0.4,0c-0.7-0.1-1.5-0.1-2.2-0.3
				c-0.6-0.1-1.3-0.3-1.8-0.6c-0.8-0.4-1.4-0.9-1.8-1.7c-0.1-0.3-0.2-0.6-0.3-0.9C605.6,298.5,608.3,299.2,610.9,300z"/>
			<path d="M606.5,336.3c0.1,0.1,0.2,0.2,0.3,0.3c-0.2,1-0.3,1.9-0.6,2.9c-0.5-0.5-1-0.9-1.5-1.4
				C603.7,336.9,605.3,335.3,606.5,336.3z"/>
			<path class="st4" d="M604.8,396.7c0,1,0.1,2,0.1,3c-0.7-0.2-1.4-0.4-2-0.8c-0.2-0.1-0.3-0.3-0.4-0.5c0-0.4,0-0.8,0-1.3
				c0.2-0.4,0.6-0.7,1.1-0.6C604,396.5,604.4,396.6,604.8,396.7z"/>
			<path class="st4" d="M604.8,392.1c0,1.5,0,3.1,0,4.6c-0.4-0.1-0.8-0.2-1.3-0.2c-0.5,0-0.9,0.3-1.1,0.6c0-1.7,0.1-3.4,0.2-5.1
				C602.7,390.7,604.8,390.7,604.8,392.1z"/>
			<path class="st4" d="M602.5,397.2c0,0.4,0,0.8,0,1.3C602.3,398,602.3,397.5,602.5,397.2z"/>
			<path d="M596.2,428c0.2-1.4,2.3-1.4,2.2,0c-0.1,1.2-0.2,2.3-0.4,3.5c-0.2-0.1-0.4-0.2-0.6-0.3c-0.8-0.4-1.5,0-1.8,0.5
				C595.9,430.5,596,429.3,596.2,428z"/>
			<path d="M597.4,431.2c0.2,0.1,0.4,0.2,0.6,0.3c-0.1,1-0.3,1.9-0.5,2.9c-0.5-0.3-1-0.6-1.4-1c-0.4-0.3-0.6-0.6-0.6-1
				c0-0.2,0.1-0.5,0.1-0.7C595.9,431.1,596.6,430.8,597.4,431.2z"/>
			<path d="M596.1,433.4c0.5,0.3,0.9,0.7,1.4,1c-0.4,2-0.8,3.9-1.4,5.9c-4,14.2-12.6,27-24.2,36.1c-0.8,0.6-2.3,0.3-2.2-0.9
				c0.2-3-0.2-5.9-0.8-8.8c-0.1-0.2-0.3-0.4-0.3-0.6c0-0.2,0-0.3,0-0.5c0.2-0.4,0.5-0.9,0.7-1.3c0.6-0.3,1.5,0,1.8,0.8
				c0.9,2.4,1.3,5.1,1.3,7.7c2.4-2,4.6-4.1,6.6-6.4c8.6-9.5,14.2-21.3,16.5-33.8C595.5,432.8,595.7,433.1,596.1,433.4z"/>
			<path class="st4" d="M596.6,299.1c0,0.1,0,0.1,0,0.2c-0.7-0.1-1.4-0.3-2.1-0.4C594.6,297.7,596.5,297.8,596.6,299.1z"/>
			<path class="st4" d="M595.6,431.7c0,0.2-0.1,0.5-0.1,0.7C595.5,432.2,595.5,432,595.6,431.7z"/>
			<path class="st4" d="M593,336.2c1.5-0.2,2.2,1.9,0.7,2.4c-1.3,0.4-2.5,0.7-3.8,0.9c0-0.1,0.1-0.3,0.1-0.5
				c0.2-0.9-0.7-1.4-1.4-1.2l-0.2-0.7C589.9,336.8,591.4,336.5,593,336.2z"/>
			<path d="M591.9,230.9c-0.3-0.2-0.5-0.4-0.8-0.6c-0.3-0.3-0.6-0.6-0.7-1c-0.1-0.4-0.1-0.8,0.2-1.2c0.1-0.1,0.2-0.3,0.3-0.4
				C591.2,228.8,591.6,229.9,591.9,230.9z"/>
			<path d="M590.9,227.8c-0.1,0.1-0.2,0.2-0.3,0.4c-0.2,0.4-0.3,0.8-0.2,1.2l-1.5,0.5c-1.9-5.3-3.8-10.7-5.8-15.9
				c-1.1-3-2.3-5.9-3.5-8.8c-1.2-2.9-2.7-5.8-3.5-8.8c-0.4-1.4,1.5-2.1,2.3-0.9c0.9,1.6,1.5,3.4,2.3,5.1c0.7,1.6,1.3,3.2,2,4.8
				c1.3,3.2,2.5,6.5,3.8,9.7C587.8,219.2,589.4,223.5,590.9,227.8z"/>
			<path class="st4" d="M587.6,340c0.7-0.1,1.5-0.3,2.2-0.4c-2,9.6-11.2,15.9-20.3,17.9c-11.3,2.5-23-0.5-34.3-1.6
				c-11.9-1.1-23.9-0.9-35.8,0.4c-5.9,0.6-11.8,1.6-17.6,2.7c-5.7,1-11.4,2.1-17.2,1.9c-5-0.1-10-1.1-14.5-3.4
				c-2.1-1.1-4.3-2.4-5.7-4.3c-1-1.3-1.5-3.1-0.9-4.5c0.8,0.4,1.8,0.7,2.7,0.8c-0.4,0.8,0.7,2.1,1.2,2.6c0.9,0.9,2,1.6,3,2.2
				c2.2,1.3,4.7,2.2,7.2,2.8c5.6,1.3,11.4,1,17.1,0.1c5.4-0.8,10.8-1.9,16.3-2.8c5.4-0.8,10.9-1.4,16.3-1.8c11-0.7,22-0.4,32.9,1
				c10.2,1.3,21.1,3.8,31.3,0.8C578.4,352.3,585.3,347.4,587.6,340z"/>
			<path d="M569.4,464.2c-0.2,0.4-0.5,0.9-0.7,1.3c0,0,0-0.1,0-0.2C568.6,464.7,569,464.4,569.4,464.2z"/>
			<circle class="st9" cx="555" cy="333" r="10"/>
			<path class="st4" d="M552.3,372.5c1.3-0.4,2.2,1.6,0.9,2.2c-5.1,2.5-11,3.8-16.5,4.9c-10,2-20.3,2.5-30.4,1.6
				c-5.1-0.5-10.1-1.3-15.1-2.5c-4.9-1.2-10.1-2.5-14.5-4.8c-1-0.6-0.3-2.2,0.8-1.9c2.8,0.8,5.4,1.8,8.2,2.7c2.6,0.8,5.2,1.4,7.9,2
				c9.7,2.1,19.8,2.7,29.7,2c4.9-0.4,9.8-1.1,14.7-2.1C542.8,375.5,547.5,373.8,552.3,372.5z"/>
			<path class="st4" d="M527.5,386.9c1.4-0.6,2.6,1.3,1.2,2c-3.3,1.9-7.5,2.3-11.3,2.1c-2-0.1-4.1-0.4-6.1-0.8
				c-1.9-0.4-4.2-0.6-6-1.5c-0.9-0.5-0.5-1.9,0.5-1.9c1.9,0,3.8,0.8,5.6,1.2c1.8,0.3,3.7,0.6,5.5,0.7
				C520.7,388.9,524.1,388.3,527.5,386.9z"/>
			<path d="M521.1,173.7c1-0.6,2.1,0.9,1.3,1.6c-4.2,3.8-10,6.3-15.4,7.9c-5.6,1.6-11.6,2.2-17.4,1.7c-1.3-0.1-1.4-2.2,0-2.1
				c5.6,0.5,11.2,0,16.6-1.6c2.7-0.8,5.4-1.8,7.9-3.1C516.5,176.8,518.7,175.2,521.1,173.7z"/>
			<path d="M489.8,479.4c0.8-0.2,1.9,0.4,1.6,1.5c0,0.1-0.1,0.3-0.1,0.5C490.7,480.7,490.2,480,489.8,479.4z"/>
			<path class="st4" d="M491.3,481.4c-0.7,2.8-1.4,5.5-2,8.3c-0.3,1.1-1.7,1.1-2.3,0.3c-5.6-7.4-10.7-15.1-15-23.3v0
				c0-0.3-0.2-0.6-0.4-0.8c-0.6-1.3-1.3-2.6-1.9-3.9c-0.6-1.2,1.1-2.2,1.8-1c4.6,9,9.9,17.6,16.1,25.6c0.5-2.1,1-4.2,1.5-6.3
				c0.1-0.5,0.4-0.8,0.8-0.9C490.2,480,490.7,480.7,491.3,481.4z"/>
			<circle class="st9" cx="476" cy="333" r="10"/>
			<path class="st4" d="M472,466.6L472,466.6c-0.1,0.7-0.3,1.3-0.3,2c-0.1,0.4-0.1,1.1-0.1,1.6c0,0.6,0,1.2,0.1,1.8
				c0.1,0.5,0.3,1.3,0.3,1.9c0,0.6-0.6,1-1.1,1c0.3-0.5,0.3-1.4-0.4-1.7c-0.3-0.1-0.6-0.3-0.9-0.5c0,0,0,0,0,0
				c0-0.2-0.1-0.4-0.1-0.6c-0.1-0.6-0.1-1.3-0.1-2c0-1.4,0.1-2.9,0.7-4.2c0.2-0.4,0.8-0.6,1.2-0.5c0.1,0,0.2,0.1,0.3,0.2
				C471.7,466.1,471.8,466.4,472,466.6z"/>
			<path class="st4" d="M471.5,465.8c0.3,0.2,0.5,0.5,0.4,0.8C471.8,466.4,471.7,466.1,471.5,465.8z"/>
			<path class="st4" d="M451.4,454.7c0.1,0.5,0,1.1-0.4,1.4c-1.2,0.9-2.7,1.5-4,2.3c-1.4,0.7-2.7,1.4-4.1,2.2
				c-0.8,0.4-1.8-0.1-1.8-1.1c0-7.1-0.6-14.1-1.9-21c-0.7-3.4-1.5-6.9-2.5-10.2c-0.4-1.5-0.9-2.9-1.4-4.4c0.3-0.4,0.4-0.9,0.2-1.3
				l1.5-0.5c0.1,0.2,0.1,0.4,0.2,0.5c0.6,1.7,1.1,3.4,1.7,5.1c1,3.4,1.9,6.9,2.5,10.4c1.2,6.4,1.9,12.9,2,19.4l2.5-1.3
				c1.4-0.7,2.7-1.6,4.2-2.1C450.8,453.8,451.2,454.2,451.4,454.7z"/>
			<path class="st4" d="M437,421.9l-1.5,0.5c-0.2-0.5-0.5-0.8-1-0.8c-0.5-1.1-0.9-2.3-1.1-3.4c-0.2-1.1,1.2-1.7,1.8-0.8
				C436,418.7,436.5,420.4,437,421.9z"/>
			<path class="st4" d="M435.4,422.5c0.1,0.4,0.1,1-0.2,1.3c0-0.2-0.1-0.3-0.2-0.5c-0.2-0.5-0.4-1.1-0.6-1.6
				C434.9,421.6,435.3,422,435.4,422.5z"/>
			<path class="st4" d="M435,423.3c0.1,0.2,0.1,0.3,0.2,0.5c-0.1,0.2-0.3,0.3-0.6,0.4c-4.9,1.9-10,3.1-15.3,3.6
				c-1.2,0.1-1.5-1.4-0.9-2.1c2.4-3.1,4-6.9,4.5-10.8c0.5-3.7,0-7.1-1.1-10.5c0.7-0.1,1.4-0.3,2.1-0.4c2.8,6.7,1.6,14.8-2.1,21
				c4.1-0.6,8.1-1.7,12-3.2c0.2-0.1,0.3-0.1,0.5-0.1C434.6,422.2,434.9,422.8,435,423.3z"/>
			<path class="st4" d="M423.4,402.6c0.2,0.4,0.4,0.9,0.6,1.3c-0.7,0.2-1.4,0.3-2.1,0.4c-0.1-0.3-0.2-0.7-0.3-1
				c-0.2-0.6,0.3-1.1,0.8-1.3C422.8,402.1,423.2,402.2,423.4,402.6z"/>
			<path class="st4" d="M421.5,375.8c1.2-0.7,2.5,1,1.5,1.9c-0.5,0.5-1.1,1-1.8,1.3c0-0.2,0-0.4,0-0.5c0-0.8-0.6-1.1-1.1-1l-0.4-0.7
				C420.4,376.5,420.9,376.1,421.5,375.8z"/>
			<path class="st4" d="M422.3,401.8l0.1,0.3c-0.5,0.1-1,0.6-0.8,1.3c0.1,0.3,0.2,0.7,0.3,1c-3.8,0.6-7.7,0.7-11.5,0.2
				c-1.1-0.1-1.5-1.2-0.8-2.1c5.2-6.5,8.3-14.2,9.5-22.3c0.8-0.3,1.5-0.7,2.2-1.1c-0.7,8.4-3.8,16.5-8.7,23.3
				C415.9,402.6,419.1,402.4,422.3,401.8z"/>
			<path d="M421.7,322c0.9,4.9,0.7,10-0.5,14.8c-0.2-1-0.3-2-0.4-3.1c0.4-0.4,0.3-1.2-0.2-1.6c-0.4-3.4-0.6-6.8-0.6-10.3
				C420.6,321.9,421.1,322,421.7,322z"/>
			<path d="M421.4,320.2C421.4,320.2,421.4,320.2,421.4,320.2c-0.4,0-0.9-0.1-1.3-0.1c0,0.5,0,0.9,0,1.4c0,0.1,0,0.2,0,0.3
				c-0.2,0-0.3,0-0.5-0.1c-0.1-0.3-0.1-0.7-0.2-1C419,319.4,421,318.9,421.4,320.2z"/>
			<path class="st4" d="M420.2,377.6c0.6-0.1,1.2,0.2,1.1,1c0,0.2,0,0.4,0,0.5c-0.7,0.4-1.5,0.8-2.2,1.1c0.1-0.5,0.2-1.1,0.2-1.6
				C419.3,378,419.7,377.6,420.2,377.6z"/>
			<path class="st4" d="M420.8,356.8c0.1,1.2,0.1,2.5,0,3.7c-0.1,2.3-0.3,4.6-0.7,6.8c-0.7,3.8-1.9,7.5-3.5,11
				c0.5-0.1,0.9-0.3,1.3-0.5c0.6-0.3,1.3-0.6,1.8-1l0.4,0.7c-0.5,0.1-0.9,0.4-0.9,1c-0.1,0.5-0.1,1.1-0.2,1.6
				c-1.4,0.6-2.9,0.9-4.4,1.1c-1.1,0.1-2-0.8-1.4-1.8c2.1-4,3.6-8.2,4.5-12.6c0.5-2.3,0.7-4.5,0.8-6.8c0-1,0-2,0-3.1
				c0-0.3,0-0.5,0-0.8c0.1-0.1,0.3-0.1,0.4-0.2c1-0.6,0.5-2.1-0.6-2.1c0-0.1,0-0.2,0-0.3c0.1-1.1,1.6-1.4,2-0.3
				C420.7,354.3,420.7,355.6,420.8,356.8z"/>
			<path d="M420.6,332.1c0.5,0.4,0.5,1.2,0.2,1.6C420.7,333.2,420.6,332.7,420.6,332.1z"/>
			<path d="M420.6,332.1c0.1,0.5,0.1,1.1,0.2,1.6c-0.2,0.2-0.4,0.3-0.8,0.3c-0.2,0-0.3,0-0.5,0c0.1-0.7,0.2-1.4,0.3-2.1
				c0.1,0,0.1,0,0.2,0C420.2,331.9,420.4,332,420.6,332.1z"/>
			<path d="M420.6,332.1c-0.2-0.1-0.4-0.2-0.6-0.3c-0.1,0-0.1,0-0.2,0c0.4-3.3,0.3-6.8-0.3-10.1c0.2,0,0.3,0,0.5,0.1
				C420,325.3,420.2,328.8,420.6,332.1z"/>
			<path class="st4" d="M419.5,321.8c0.6,3.3,0.7,6.7,0.3,10.1c-20.3-2.4-40.4-6.1-60.2-11.3c-2.7-0.7-5.4-1.5-8.1-2.2
				c-2-0.6-3.9-1.2-5.9-1.8c19.5-2.2,39.2,0.6,58.6,3.2C409.3,320.5,414.4,321.2,419.5,321.8z"/>
			<path class="st4" d="M418.4,353.8c1,0,1.6,1.5,0.6,2.1c-0.1,0.1-0.3,0.1-0.4,0.2C418.4,355.4,418.3,354.6,418.4,353.8z"/>
		</g>
		<g>
			<circle class="st10" cx="476" cy="333" r="10"/>
			<circle class="st10" cx="555" cy="333" r="10"/>
		</g>
	</g>
	<path d="M488.5,486.8c-4.4-7.5-6.7-15.8-6.9-24.5c0-1.1-1.6-1.1-1.6,0c-0.1,8.8,2.6,17.7,7.3,25.2
		C487.8,488.2,489,487.5,488.5,486.8z"/>
	<path d="M562.7,454.6c-0.1-0.7-1.4-0.8-1.6,0c-0.3,1.8-0.1,3.8-0.3,5.6c-0.2,2-0.7,4.1-1.2,6c-1.1,3.8-2.9,7.5-5.2,10.7
		c-0.5,0.7,0.7,1.4,1.2,0.7c2.4-3.3,4.3-7.1,5.5-11c0.6-1.9,1-3.9,1.3-5.9C562.7,458.8,563.1,456.6,562.7,454.6z"/>
	<path d="M447.7,436.6c-0.1-1.1-1.6-0.9-1.5,0.2c1,6.9-0.5,13.8-3.7,20c-0.3,0.7,0.6,1.2,1,0.6C447.2,451.3,448.6,443.7,447.7,436.6
		z"/>
	<path d="M580.1,438.8c0.1,5.8-0.6,11.6-2.1,17.3c-1.5,5.7-3.8,11-6.5,16.2c-0.4,0.7,0.6,1.3,1.1,0.6c3.1-5,5.3-10.8,6.9-16.4
		c1.5-5.8,2.3-11.7,2.3-17.7C581.7,437.8,580,437.8,580.1,438.8z"/>
	<path d="M514.8,493.7c-0.3-1.4-1.4-2.8-2.1-4c-0.7-1.3-1.4-2.6-2-3.9c-1.4-2.9-2.5-5.9-3.5-9c-1.9-6.1-2.9-12.2-3.3-18.6
		c0-0.7-1.2-0.8-1.2,0c0,6.4,1.1,12.9,2.9,19c0.9,3,2,6,3.3,8.8c0.7,1.5,1.4,2.9,2.1,4.3c0.7,1.3,1.4,3.1,2.6,4
		C514.2,494.7,515,494.4,514.8,493.7z"/>
	<path d="M535.9,457.3c-0.4-1-1.9-0.6-1.6,0.4c2.1,5.8,2.9,12,2.1,18.2c-0.4,3.1-1.1,6.2-2.2,9.1c-0.5,1.4-1.2,2.8-1.9,4.2
		c-0.7,1.3-1.8,2.6-2.2,3.9c-0.1,0.4,0.4,0.8,0.7,0.6c1.1-0.8,1.9-2.4,2.5-3.7c0.8-1.4,1.4-2.8,2-4.3c1.2-3,2-6.1,2.5-9.3
		C538.8,470,538.2,463.4,535.9,457.3z"/>
	<path d="M425,395.2c-2,1.6-4.1,2.9-6.4,4c-1.1,0.6-2.3,1-3.5,1.5c-0.6,0.2-1.2,0.4-1.8,0.6c-0.6,0.2-1.2,0.3-1.7,0.5
		c-0.5,0.3-0.3,1,0.3,1c0.6,0,1.3-0.2,1.9-0.4c0.6-0.2,1.3-0.4,1.9-0.6c1.2-0.4,2.5-0.9,3.6-1.5c2.4-1.1,4.7-2.5,6.8-4.2
		C426.8,395.7,425.7,394.6,425,395.2z"/>
	<path d="M427.2,321.1c0-0.8-1.3-0.8-1.2,0c0.1,3.2,0,6.4-0.4,9.5c-0.2,1.6-0.5,3.2-0.8,4.8c-0.3,1.5-0.9,3-1.1,4.6
		c-0.1,0.7,1,0.9,1.3,0.3c0.7-1.4,1-3.1,1.3-4.7c0.3-1.5,0.5-3.1,0.7-4.6C427.4,327.7,427.4,324.4,427.2,321.1z"/>
	<path d="M432.1,322.8c-0.6,7.3-1.2,14.5-2.5,21.7c-0.6,3.5-1.3,6.9-2.2,10.3c-0.4,1.7-0.8,3.4-1.3,5.1c-0.5,1.8-1.3,3.7-1.5,5.5
		c-0.1,0.7,0.9,1.4,1.3,0.6c0.8-1.6,1.1-3.5,1.6-5.2c0.5-1.7,0.9-3.4,1.3-5.1c0.9-3.6,1.6-7.3,2.2-11c1.2-7.2,2.1-14.5,2.1-21.8
		C433.1,322.2,432.2,322.2,432.1,322.8z"/>
	<path d="M601.5,300.4c-0.1-0.7-1.1-0.7-1.1,0c0.6,7.4-0.2,14.9-2.3,22c-0.3,0.9,1.1,1.2,1.3,0.4
		C601.7,315.5,602.4,307.9,601.5,300.4z"/>
	<path d="M604.7,320.2c0-2.1,0-4.2,0.1-6.3c0.1-4.4,0.5-8.8,1-13.1c0.1-0.8-1.1-0.8-1.2,0c-0.6,4.3-1,8.7-1.2,13.1
		c-0.1,2.1-0.1,4.2-0.1,6.3c0,1.1,0,2.3,0.1,3.4c0,1-0.1,2.1,0.3,3.1c0.2,0.5,1,0.6,1.2,0c0.2-1,0.1-2.1,0-3.1
		C604.7,322.5,604.7,321.4,604.7,320.2z"/>
	<path d="M624.1,346.5c-1.1-1-2.2-1.8-3.3-2.8c-1.1-1-2.1-2-3-3.1c-0.9-1.1-1.7-2.2-2.5-3.4c-0.4-0.6-0.8-1.2-1.1-1.9
		c-0.4-0.7-0.7-1.4-1.1-2c-0.3-0.5-1.1-0.2-1,0.4c0.3,1.4,1.2,2.8,2,4c0.8,1.3,1.7,2.5,2.6,3.7c0.9,1.2,1.9,2.2,3,3.3
		c1.1,1.1,2.3,2.1,3.6,2.8C623.9,347.8,624.6,347,624.1,346.5z"/>
	<path d="M470.2,472.8c-3.8-5-6.2-10.8-7.3-16.9c-0.5-3-0.7-6.1-0.5-9.2c0.2-3.3,1.1-6.3,1.9-9.4c0.2-0.6-0.8-1.1-1.1-0.5
		c-1.2,2.9-1.7,6.2-2,9.3c-0.3,3.2-0.1,6.5,0.4,9.7c1,6.4,3.7,12.5,7.7,17.7C469.7,474,470.6,473.4,470.2,472.8z"/>
	<path d="M418,349.5c-2.2,2.8-5.2,4.7-8.7,5.2c-0.6,0.1-0.5,1.1,0.1,1.1c3.7-0.5,7.2-2.5,9.4-5.6C419.2,349.6,418.4,349,418,349.5z"
		/>
	<path d="M618.5,398.3c-3.5-1.6-6.4-4.2-8.4-7.5c-1.1-1.7-1.8-3.6-2.3-5.6c-0.2-1-0.4-2-0.5-3c-0.1-1.1,0-2.2,0-3.2
		c-0.1-0.7-1.1-1-1.3-0.2c-0.5,2-0.1,4.5,0.3,6.5c0.5,2.2,1.3,4.3,2.4,6.2c2.1,3.5,5.4,6.3,9.1,8
		C618.6,399.8,619.2,398.7,618.5,398.3z"/>
	<g id="XMLID_4_">
		<g>
			<path d="M466.2,530.6c0.6,0.5,0.8,1.6,0,2c-0.5,0.3-1.1,0.3-1.7,0.3c0-0.1,0-0.2,0-0.3c0-0.6-0.5-1.2-1.1-1.1
				c-0.6,0-0.9,0.3-1.3,0.7c0,0-0.1,0.1-0.1,0.1c-0.2-0.1-0.4-0.1-0.5-0.2c-1.4-0.5-2.8-1.2-4-2.1c-1.7-1.3-3.1-2.8-4.2-4.6
				c0.1-0.1,0.2-0.3,0.3-0.4c0.3-0.8-0.2-1.7-1.1-1.5c0,0-0.1,0-0.1,0h0c-0.1-0.3-0.2-0.5-0.3-0.8c-0.4-1.1,1.4-1.9,1.9-0.8
				c1.1,2.3,2.9,4.3,5,5.8c1.1,0.7,2.2,1.3,3.4,1.7c0.6,0.2,1.2,0.4,1.9,0.5C464.9,530.1,465.7,530.2,466.2,530.6z"/>
			<path d="M464.5,532.6c0,0.1,0,0.2,0,0.3c-0.8,0-1.7-0.3-2.5-0.5c0,0,0.1-0.1,0.1-0.1c0.4-0.4,0.7-0.7,1.3-0.7
				C464,531.4,464.5,532,464.5,532.6z"/>
			<path d="M464.5,532.9c-0.1,0.9-1.2,1.5-1.8,2c-0.6,0.4-1.3,0.8-2,1c-0.8,0.3-1.6,0.5-2.4,0.5c-0.1-0.1-0.1-0.3-0.2-0.4
				c-0.3-0.5-0.7-0.7-1.1-0.8c-0.4-0.3-0.8-0.6-1.2-0.8c0.2-0.2,0.4-0.3,0.6-0.2c0.3,0,0.7,0.1,1,0.1c0.2,0,0.3,0,0.5,0
				c0.1,0,0.2,0,0.3,0c0,0,0.1,0,0.1,0c0,0,0.2,0,0.2,0c0.1,0,0.1,0,0.2,0c0.2,0,0.3-0.1,0.5-0.1c0.3-0.1,0.6-0.2,0.9-0.3
				c0,0,0.1,0,0.1,0c0,0,0.1,0,0.1-0.1c0.2-0.1,0.3-0.2,0.5-0.3c0.3-0.2,0.5-0.3,0.8-0.5c0,0,0,0,0,0c0.1,0,0.1-0.1,0.2-0.2
				c0.1-0.1,0.2-0.2,0.3-0.2C462.8,532.6,463.7,532.8,464.5,532.9z"/>
			<path class="st11" d="M462,532.3c-0.1,0.1-0.2,0.2-0.3,0.2c-0.1,0-0.1,0.1-0.2,0.2c0,0,0,0,0,0c-0.3,0.2-0.5,0.4-0.8,0.5
				c-0.2,0.1-0.3,0.2-0.5,0.3c0,0-0.1,0-0.1,0.1c0,0-0.1,0-0.1,0c-0.3,0.1-0.6,0.2-0.9,0.3c-0.2,0.1-0.3,0.1-0.5,0.1
				c-0.1,0-0.1,0-0.2,0c0,0-0.1,0-0.2,0c0,0-0.1,0-0.1,0c-0.1,0-0.2,0-0.3,0c-0.2,0-0.3,0-0.5,0c-0.3,0-0.7,0-1-0.1
				c-0.2,0-0.5,0.1-0.6,0.2c-0.3-0.2-0.7-0.4-1-0.5c0.1-0.1,0.1-0.1,0.2-0.2c0.1-0.1,0.2-0.3,0.3-0.4c0.2-0.3,0.5-0.6,0.7-0.9
				c0.2-0.3,0.5-0.6,0.7-0.8c0.2-0.3,0.5-0.5,0.6-0.9c0-0.1-0.1-0.2-0.2-0.1c-0.3,0.2-0.5,0.5-0.7,0.8c-0.2,0.3-0.5,0.6-0.7,0.9
				c-0.2,0.3-0.4,0.6-0.7,0.9c-0.1,0.1-0.2,0.3-0.3,0.4c-0.1,0.1-0.1,0.2-0.2,0.3c-0.1,0-0.2-0.1-0.3-0.1v0c0.1-0.2,0.1-0.3,0.2-0.4
				c0.1-0.3,0.2-0.6,0.4-0.8c0.3-0.6,0.6-1.1,0.9-1.6c0.1-0.2-0.2-0.4-0.3-0.2c-0.4,0.5-0.7,1-1,1.6c-0.1,0.3-0.2,0.6-0.3,0.8
				c-0.1,0.2-0.1,0.3-0.1,0.4c0,0,0,0,0,0.1c-0.2-0.1-0.4-0.1-0.6-0.2c0-0.1-0.1-0.3-0.1-0.4c-0.1-0.4-0.1-0.8,0-1.3
				c0-0.4,0.1-0.8,0.2-1.2c0.1-0.2,0.1-0.4,0.2-0.6c0.1-0.2,0.2-0.3,0.1-0.5c0-0.1-0.2-0.2-0.3-0.1c-0.2,0.1-0.2,0.3-0.3,0.5
				c-0.1,0.2-0.2,0.4-0.2,0.6c-0.1,0.4-0.2,0.9-0.2,1.3c0,0.4,0,0.9,0.1,1.3c0,0.1,0,0.2,0,0.3c-0.2-0.1-0.4-0.1-0.6-0.1
				c-0.4-1.4-0.6-2.8-0.4-4.3c0.1-0.7,0.3-1.4,0.6-2c0.1-0.3,0.3-0.6,0.5-0.9c0.1-0.2,0.3-0.3,0.4-0.5c1.1,1.8,2.5,3.3,4.2,4.6
				c1.2,0.9,2.6,1.6,4,2.1C461.6,532.2,461.8,532.2,462,532.3z M458.3,532.9c0,0,0-0.1,0-0.2c-0.1-0.1-0.3,0-0.4,0
				c-0.2,0-0.3,0.1-0.5,0.2c-0.3,0.1-0.6,0.2-0.9,0.4c-0.3,0.1-0.6,0.2-1,0.4c-0.1,0-0.6,0.2-0.5,0.3c0.1,0.1,0.2,0,0.3,0
				c0.1,0,0.3-0.1,0.4-0.1c0.3-0.1,0.6-0.2,0.9-0.3c0.3-0.1,0.6-0.2,0.9-0.3c0.1-0.1,0.3-0.1,0.4-0.1C458,533,458.2,533,458.3,532.9
				z"/>
			<path d="M458.2,536.4c3.1,6.3,3.4,13.8,0.6,20.3c-1.2,2.8-2.8,5.4-6.1,5.5c-3.1,0-6.7-0.5-9.7-1.3c-2.9-0.8-5.6-2.3-8-4.1
				c-2.3-1.8-4.8-4.3-5.6-7.2c-0.9-3.1,0.9-6.2,2.8-8.6c1.9-2.3,4.3-4.2,6.9-5.5c3.1-1.5,6.4-2.3,9.8-2.4c0.3,0,0.5,0,0.7,0
				c0.1,0.3,0.1,0.5,0.2,0.8c0.2,0.6,0.8,1,1.4,0.8c0.6-0.2,1-0.8,0.8-1.4v0c0.2,0,0.4,0.1,0.6,0.1c0,0.1,0.1,0.2,0.1,0.3
				c0,0.2,0.1,0.4,0.3,0.5c0.1,0,0.1,0,0.2,0c0.1-0.2,0-0.3,0-0.5c0-0.1,0-0.1,0-0.2c0.2,0,0.4,0.1,0.6,0.2c0,0.1,0,0.1,0,0.2
				c0,0.1,0.1,0.1,0.1,0.2c0,0,0,0,0,0c0-0.1,0.1-0.1,0.2-0.1c0,0,0.1-0.1,0.1-0.2c0.1,0,0.2,0.1,0.3,0.1c0,0.1-0.1,0.1-0.1,0.2
				c-0.1,0.1,0.1,0.2,0.2,0.1c0.1-0.1,0.1-0.1,0.2-0.2c0.4,0.1,0.7,0.3,1,0.5c-0.2,0.2-0.4,0.4-0.4,0.7c-0.1,0.5,0.2,1.1,0.8,1.2
				C456.8,536.3,457.5,536.4,458.2,536.4z M457.1,552.3c1.2-5,0.6-10.3-1.7-14.9c-0.1-0.2-0.1-0.4-0.2-0.6c-2.2-1.6-5.5-1.4-8.1-1
				c-3.1,0.4-6.1,1.4-8.7,3.1c-2,1.3-3.7,2.9-5,4.9c-0.7,1.2-1.5,2.5-1.5,3.9c0,1.4,0.8,2.5,1.6,3.6c3.1,3.9,7.6,6.4,12.5,7.3
				c1.5,0.3,3.1,0.4,4.6,0.5c1,0.1,2.4,0.4,3.3-0.2c1-0.6,1.5-2,1.9-3C456.4,554.7,456.8,553.5,457.1,552.3z"/>
			<path d="M458.2,532.7c0.1,0,0.1,0.1,0,0.2c-0.1,0.1-0.2,0.2-0.4,0.2c-0.1,0-0.3,0.1-0.4,0.1c-0.3,0.1-0.6,0.2-0.9,0.3
				c-0.3,0.1-0.6,0.2-0.9,0.3c-0.1,0-0.3,0.1-0.4,0.1c-0.1,0-0.2,0.1-0.3,0c-0.1-0.1,0.4-0.3,0.5-0.3c0.3-0.1,0.6-0.2,1-0.4
				c0.3-0.1,0.6-0.2,0.9-0.4c0.2,0,0.3-0.1,0.5-0.2C458,532.7,458.1,532.6,458.2,532.7z"/>
			<path d="M458.2,536.4c-0.7,0-1.5,0-2.2-0.2c-0.5-0.1-0.8-0.7-0.8-1.2c0-0.3,0.2-0.5,0.4-0.7c0.4,0.2,0.9,0.5,1.2,0.8
				c0.4,0,0.8,0.3,1.1,0.8C458.1,536.1,458.1,536.2,458.2,536.4z"/>
			<path class="st11" d="M455.4,537.5c2.3,4.6,2.9,9.9,1.7,14.9c-0.3,1.2-0.7,2.4-1.2,3.5c-0.4,1-1,2.3-1.9,3
				c-0.9,0.6-2.3,0.3-3.3,0.2c-1.5-0.1-3.1-0.3-4.6-0.5c-4.9-0.9-9.3-3.4-12.5-7.3c-0.8-1-1.6-2.2-1.6-3.6c0-1.4,0.8-2.7,1.5-3.9
				c1.3-2,3-3.6,5-4.9c2.6-1.7,5.6-2.7,8.7-3.1c2.6-0.3,5.9-0.5,8.1,1C455.3,537.1,455.3,537.3,455.4,537.5z"/>
			<path d="M457,530.5c0.1-0.1,0.2,0,0.2,0.1c-0.1,0.3-0.4,0.6-0.6,0.9c-0.2,0.3-0.5,0.6-0.7,0.8c-0.2,0.3-0.5,0.6-0.7,0.9
				c-0.1,0.1-0.2,0.3-0.3,0.4c0,0.1-0.1,0.1-0.2,0.2c-0.1,0-0.2-0.1-0.3-0.1c0.1-0.1,0.1-0.2,0.2-0.3c0.1-0.1,0.2-0.3,0.3-0.4
				c0.2-0.3,0.5-0.6,0.7-0.9c0.2-0.3,0.5-0.6,0.7-0.9C456.5,531,456.7,530.7,457,530.5z"/>
			<path d="M455.3,530.6c0.1-0.2,0.4,0,0.3,0.2c-0.4,0.5-0.7,1-0.9,1.6c-0.1,0.3-0.3,0.6-0.4,0.8c-0.1,0.1-0.1,0.3-0.2,0.4v0
				c-0.1,0-0.2-0.1-0.3-0.1c0,0,0,0,0-0.1c0-0.1,0.1-0.3,0.1-0.4c0.1-0.3,0.2-0.6,0.3-0.8C454.6,531.6,454.9,531.1,455.3,530.6z"/>
			<path d="M454.6,533.8c-0.1,0.1-0.1,0.1-0.2,0.2c-0.1,0.1-0.2,0-0.2-0.1c0-0.1,0.1-0.1,0.1-0.2
				C454.5,533.8,454.6,533.8,454.6,533.8z"/>
			<path d="M454.1,533.6c0,0,0,0.1-0.1,0.2c0,0-0.1,0.1-0.2,0.1c0,0,0,0,0,0c0-0.1-0.1-0.1-0.1-0.2c0,0,0-0.1,0-0.2
				C453.9,533.6,454,533.6,454.1,533.6z"/>
			<path d="M453.7,529.3c0,0.2-0.1,0.3-0.1,0.5c-0.1,0.2-0.1,0.4-0.2,0.6c-0.1,0.4-0.2,0.8-0.2,1.2c0,0.4,0,0.8,0,1.3
				c0,0.1,0,0.3,0.1,0.4c-0.2,0-0.3-0.1-0.5-0.1c0-0.1,0-0.2,0-0.3c-0.1-0.4-0.1-0.9-0.1-1.3c0-0.4,0.1-0.9,0.2-1.3
				c0.1-0.2,0.1-0.4,0.2-0.6c0.1-0.2,0.1-0.4,0.3-0.5C453.5,529.2,453.6,529.2,453.7,529.3z"/>
			<path d="M452.4,523.6c0.9-0.3,1.5,0.7,1.1,1.5c-0.1,0.2-0.2,0.3-0.3,0.4c-0.4-0.6-0.7-1.2-1-1.8
				C452.3,523.6,452.4,523.6,452.4,523.6z"/>
			<path d="M453.3,533.6c0,0.2,0.1,0.3,0,0.5c0,0.1-0.1,0.1-0.2,0c-0.2-0.1-0.2-0.3-0.3-0.5c0-0.1-0.1-0.2-0.1-0.3
				c0.2,0,0.3,0.1,0.5,0.1C453.2,533.4,453.3,533.5,453.3,533.6z"/>
			<path d="M453.3,525.5c-0.2,0.2-0.3,0.3-0.4,0.5c-0.2,0.3-0.3,0.6-0.5,0.9c-0.3,0.7-0.5,1.4-0.6,2c-0.2,1.5,0,2.8,0.4,4.3
				c-0.8-0.1-1.6-0.2-2.4-0.2c-0.4-1.5-0.3-3.2,0-4.8c0.2-0.9,0.5-1.8,0.9-2.6c0.4-0.7,0.9-1.7,1.7-2h0
				C452.5,524.3,452.9,524.9,453.3,525.5z"/>
			<path d="M452.1,533.2c0.1,0.6-0.2,1.3-0.8,1.4c-0.6,0.2-1.2-0.2-1.4-0.8c-0.1-0.3-0.2-0.5-0.2-0.8
				C450.5,533,451.3,533,452.1,533.2L452.1,533.2z"/>
		</g>
		<g>
		</g>
	</g>
</g>
</svg>
